<svg xmlns="http://www.w3.org/2000/svg" width="24" height="24" viewBox="0 0 24 24" fill="none">
    <g clip-path="url(#clip0_3151_148)">
        <mask id="mask0_3151_148" style="mask-type:luminance" maskUnits="userSpaceOnUse" x="0" y="-1" width="24" height="25">
            <path d="M24 -0.000244141H0V23.9996H24V-0.000244141Z" fill="white"/>
        </mask>
        <g mask="url(#mask0_3151_148)">
            <path fill-rule="evenodd" clip-rule="evenodd" d="M0.0010376 17.5005C0.0010376 13.9105 2.91104 11.0005 6.50105 11.0005H11.0011V6.5005C11.0011 2.9385 13.8671 0.0454884 17.4181 0.000488281C17.4461 0.000488281 17.4731 0.000488281 17.5011 0.000488281C21.0911 0.000488281 24.0011 2.9105 24.0011 6.5005C24.0011 10.0905 21.0911 13.0005 17.5011 13.0005H13.0011V17.5005C13.0011 21.0905 10.0911 24.0005 6.50105 24.0005C2.91104 24.0005 0.0010376 21.0905 0.0010376 17.5005ZM2.00104 17.5005C2.00104 19.9855 4.01605 22.0005 6.50105 22.0005C8.98606 22.0005 11.0011 19.9855 11.0011 17.5005V13.0005H6.50105C4.01605 13.0005 2.00104 15.0155 2.00104 17.5005ZM17.5011 2.00049C15.0161 2.00049 13.0011 4.0155 13.0011 6.5005V11.0005H17.5011C19.9861 11.0005 22.0011 8.98551 22.0011 6.5005C22.0011 4.0155 19.9861 2.00049 17.5011 2.00049Z" fill="#FF533C"/>
        </g>
    </g>
    <defs>
        <clipPath id="clip0_3151_148">
            <rect width="24" height="24" fill="white"/>
        </clipPath>
    </defs>
</svg>