<svg xmlns="http://www.w3.org/2000/svg" width="24" height="24" viewBox="0 0 24 24" fill="none">
    <g clip-path="url(#clip0_3151_136)">
        <mask id="mask0_3151_136" style="mask-type:luminance" maskUnits="userSpaceOnUse" x="0" y="-1" width="24" height="25">
            <path d="M24 -0.000244141H0V23.9996H24V-0.000244141Z" fill="white"/>
        </mask>
        <g mask="url(#mask0_3151_136)">
            <path fill-rule="evenodd" clip-rule="evenodd" d="M2.25605 19.0005C0.837044 17.0295 0.0010376 14.6115 0.0010376 12.0005C0.0010376 5.3775 5.37805 0.000488281 12.0011 0.000488281C18.6241 0.000488281 24.0011 5.3775 24.0011 12.0005C24.0011 18.6235 18.6241 24.0005 12.0011 24.0005C11.4491 24.0005 11.0011 23.5525 11.0011 23.0005C11.0011 22.4485 11.4491 22.0005 12.0011 22.0005C17.5201 22.0005 22.0011 17.5195 22.0011 12.0005C22.0011 6.4815 17.5201 2.00049 12.0011 2.00049C6.48205 2.00049 2.00104 6.4815 2.00104 12.0005C2.00104 14.2495 2.74504 16.3265 4.00105 17.9985V16.3125C4.00105 15.7605 4.44905 15.3125 5.00105 15.3125C5.55305 15.3125 6.00105 15.7605 6.00105 16.3125V20.0005C6.00105 20.5525 5.55305 21.0005 5.00105 21.0005H1.00104C0.449039 21.0005 0.0010376 20.5525 0.0010376 20.0005C0.0010376 19.4485 0.449039 19.0005 1.00104 19.0005H2.25605Z" fill="#FF533C"/>
            <path fill-rule="evenodd" clip-rule="evenodd" d="M6.29418 12.7072C5.90418 12.3172 5.90418 11.6831 6.29418 11.2931C6.68418 10.9031 7.31818 10.9031 7.70818 11.2931L10.8932 14.4782L16.2012 7.40013C16.5322 6.95913 17.1592 6.86915 17.6012 7.20015C18.0432 7.53115 18.1322 8.15915 17.8012 8.60015L11.8012 16.6002C11.6272 16.8322 11.3612 16.9772 11.0722 16.9982C10.7832 17.0182 10.4992 16.9122 10.2942 16.7072L6.29418 12.7072Z" fill="#FF533C"/>
        </g>
    </g>
    <defs>
        <clipPath id="clip0_3151_136">
            <rect width="24" height="24" fill="white"/>
        </clipPath>
    </defs>
</svg>