<svg xmlns="http://www.w3.org/2000/svg" width="24" height="24" viewBox="0 0 24 24" fill="none">
    <g clip-path="url(#clip0_3152_178)">
        <mask id="mask0_3152_178" style="mask-type:luminance" maskUnits="userSpaceOnUse" x="0" y="-1" width="24" height="25">
            <path d="M24 -0.000244141H0V23.9996H24V-0.000244141Z" fill="white"/>
        </mask>
        <g mask="url(#mask0_3152_178)">
            <path fill-rule="evenodd" clip-rule="evenodd" d="M12.0011 0.000976562C18.6241 0.000976562 24.0011 5.37799 24.0011 12.001C24.0011 18.624 18.6241 24.001 12.0011 24.001C5.37805 24.001 0.0010376 18.624 0.0010376 12.001C0.0010376 5.37799 5.37805 0.000976562 12.0011 0.000976562ZM12.0011 2.00098C6.48205 2.00098 2.00104 6.48199 2.00104 12.001C2.00104 17.52 6.48205 22.001 12.0011 22.001C17.5201 22.001 22.0011 17.52 22.0011 12.001C22.0011 6.48199 17.5201 2.00098 12.0011 2.00098ZM12.9121 4.54298L14.692 8.46401L18.971 8.946C19.36 8.99001 19.6891 9.257 19.8101 9.63C19.9311 10.003 19.8231 10.413 19.5331 10.678L16.3551 13.582L17.2191 17.8C17.2981 18.185 17.1441 18.58 16.8271 18.81C16.5101 19.041 16.0871 19.064 15.7461 18.871L12.0011 16.746L8.25606 18.871C7.91506 19.064 7.49206 19.041 7.17506 18.81C6.85806 18.58 6.70406 18.185 6.78306 17.8L7.64705 13.582L4.46903 10.678C4.17903 10.413 4.07106 10.003 4.19206 9.63C4.31306 9.257 4.64205 8.99001 5.03105 8.946L9.31008 8.46401L11.09 4.54298C11.253 4.18598 11.6091 3.95698 12.0011 3.95698C12.3931 3.95698 12.7491 4.18598 12.9121 4.54298ZM12.0011 7.37499L10.8961 9.80801C10.7511 10.128 10.448 10.348 10.098 10.388L7.44304 10.687L9.41506 12.489C9.67506 12.726 9.79105 13.083 9.72005 13.428L9.18404 16.045L11.507 14.726C11.814 14.552 12.1881 14.552 12.4951 14.726L14.8181 16.045L14.2821 13.428C14.2111 13.083 14.3271 12.726 14.5871 12.489L16.5591 10.687L13.9041 10.388C13.5541 10.348 13.251 10.128 13.106 9.80801L12.0011 7.37499Z" fill="#FF533C"/>
        </g>
    </g>
    <defs>
        <clipPath id="clip0_3152_178">
            <rect width="24" height="24" fill="white"/>
        </clipPath>
    </defs>
</svg>