<svg xmlns="http://www.w3.org/2000/svg" width="24" height="24" viewBox="0 0 24 24" fill="none">
    <g clip-path="url(#clip0_3152_168)">
        <mask id="mask0_3152_168" style="mask-type:luminance" maskUnits="userSpaceOnUse" x="0" y="-1" width="24" height="25">
            <path d="M24 -0.000244141H0V23.9996H24V-0.000244141Z" fill="white"/>
        </mask>
        <g mask="url(#mask0_3152_168)">
            <path fill-rule="evenodd" clip-rule="evenodd" d="M18.6751 24.0005H5.32704C2.38603 24.0005 0.0010376 21.6166 0.0010376 18.6745V5.32649C0.0010376 2.38548 2.38603 0.000488281 5.32704 0.000488281H18.6751C21.6161 0.000488281 24.0011 2.38548 24.0011 5.32649V18.6745C24.0011 21.6166 21.6161 24.0005 18.6751 24.0005ZM13.0011 22.0005H18.6751C20.5121 22.0005 22.0011 20.5115 22.0011 18.6745V5.32649C22.0011 3.48949 20.5121 2.00049 18.6751 2.00049H5.32704C3.49003 2.00049 2.00104 3.48949 2.00104 5.32649V18.6745C2.00104 20.5115 3.49003 22.0005 5.32704 22.0005H11.0011V10.4145L7.69304 13.7235C7.30204 14.1135 6.66907 14.1135 6.27907 13.7235C5.88806 13.3325 5.88806 12.6995 6.27907 12.3085L11.2941 7.2935C11.6841 6.9035 12.318 6.9035 12.708 7.2935L17.7231 12.3085C18.1141 12.6995 18.1141 13.3325 17.7231 13.7235C17.3331 14.1135 16.7001 14.1135 16.3091 13.7235L13.0011 10.4145V22.0005Z" fill="#FF533C"/>
        </g>
    </g>
    <defs>
        <clipPath id="clip0_3152_168">
            <rect width="24" height="24" fill="white"/>
        </clipPath>
    </defs>
</svg>