<svg xmlns="http://www.w3.org/2000/svg" width="24" height="24" viewBox="0 0 24 24" fill="none">
    <g clip-path="url(#clip0_3149_126)">
        <mask id="mask0_3149_126" style="mask-type:luminance" maskUnits="userSpaceOnUse" x="0" y="-1" width="24" height="25">
            <path d="M24 -0.000244141H0V23.9996H24V-0.000244141Z" fill="white"/>
        </mask>
        <g mask="url(#mask0_3149_126)">
            <path fill-rule="evenodd" clip-rule="evenodd" d="M24.0011 5.0005V7.0005C24.0011 9.20951 22.2101 11.0005 20.0011 11.0005H4.00105C1.79204 11.0005 0.0010376 9.20951 0.0010376 7.0005V5.0005C0.0010376 2.79149 1.79204 1.00049 4.00105 1.00049H20.0011C22.2101 1.00049 24.0011 2.79149 24.0011 5.0005ZM22.0011 5.0005C22.0011 3.8965 21.1051 3.00049 20.0011 3.00049H4.00105C2.89704 3.00049 2.00104 3.8965 2.00104 5.0005V7.0005C2.00104 8.10451 2.89704 9.00051 4.00105 9.00051H20.0011C21.1051 9.00051 22.0011 8.10451 22.0011 7.0005V5.0005ZM5.00105 7.0005C4.44905 7.0005 4.00105 6.5525 4.00105 6.0005C4.00105 5.4485 4.44905 5.0005 5.00105 5.0005H9.00106C9.55306 5.0005 10.0011 5.4485 10.0011 6.0005C10.0011 6.5525 9.55306 7.0005 9.00106 7.0005H5.00105ZM13.0011 7.0005C12.4491 7.0005 12.0011 6.5525 12.0011 6.0005C12.0011 5.4485 12.4491 5.0005 13.0011 5.0005H19.0011C19.5531 5.0005 20.0011 5.4485 20.0011 6.0005C20.0011 6.5525 19.5531 7.0005 19.0011 7.0005H13.0011ZM24.0011 17.0005V19.0005C24.0011 21.2095 22.2101 23.0005 20.0011 23.0005H4.00105C1.79204 23.0005 0.0010376 21.2095 0.0010376 19.0005V17.0005C0.0010376 14.7915 1.79204 13.0005 4.00105 13.0005H20.0011C22.2101 13.0005 24.0011 14.7915 24.0011 17.0005ZM22.0011 17.0005C22.0011 15.8965 21.1051 15.0005 20.0011 15.0005H4.00105C2.89704 15.0005 2.00104 15.8965 2.00104 17.0005V19.0005C2.00104 20.1045 2.89704 21.0005 4.00105 21.0005H20.0011C21.1051 21.0005 22.0011 20.1045 22.0011 19.0005V17.0005ZM16.6281 18.0045C16.4051 17.6225 16.4571 17.1215 16.7851 16.7935C17.1131 16.4655 17.614 16.4125 17.997 16.6365C18.379 16.4125 18.88 16.4655 19.208 16.7935C19.536 17.1215 19.5891 17.6225 19.3651 18.0045C19.5891 18.3875 19.536 18.8885 19.208 19.2165C18.88 19.5445 18.379 19.5965 17.997 19.3735C17.614 19.5965 17.1131 19.5445 16.7851 19.2165C16.4571 18.8885 16.4051 18.3875 16.6281 18.0045ZM4.63703 18.0045C4.41303 17.6225 4.46605 17.1215 4.79405 16.7935C5.12205 16.4655 5.62305 16.4125 6.00505 16.6365C6.38805 16.4125 6.88905 16.4655 7.21706 16.7935C7.54506 17.1215 7.59704 17.6225 7.37404 18.0045C7.59704 18.3875 7.54506 18.8885 7.21706 19.2165C6.88905 19.5445 6.38805 19.5965 6.00505 19.3735C5.62305 19.5965 5.12205 19.5445 4.79405 19.2165C4.46605 18.8885 4.41303 18.3875 4.63703 18.0045ZM10.637 18.0045C10.413 17.6225 10.4661 17.1215 10.7941 16.7935C11.1221 16.4655 11.6231 16.4125 12.0051 16.6365C12.3881 16.4125 12.8891 16.4655 13.2171 16.7935C13.5451 17.1215 13.5971 17.6225 13.3741 18.0045C13.5971 18.3875 13.5451 18.8885 13.2171 19.2165C12.8891 19.5445 12.3881 19.5965 12.0051 19.3735C11.6231 19.5965 11.1221 19.5445 10.7941 19.2165C10.4661 18.8885 10.413 18.3875 10.637 18.0045Z" fill="#FF533C"/>
        </g>
    </g>
    <defs>
        <clipPath id="clip0_3149_126">
            <rect width="24" height="24" fill="white"/>
        </clipPath>
    </defs>
</svg>