<svg xmlns="http://www.w3.org/2000/svg" width="24" height="24" viewBox="0 0 24 24" fill="none">
    <g clip-path="url(#clip0_3152_188)">
        <mask id="mask0_3152_188" style="mask-type:luminance" maskUnits="userSpaceOnUse" x="0" y="-1" width="24" height="25">
            <path d="M24 -0.000244141H0V23.9996H24V-0.000244141Z" fill="white"/>
        </mask>
        <g mask="url(#mask0_3152_188)">
            <path fill-rule="evenodd" clip-rule="evenodd" d="M0.0010376 2.00098C0.0010376 1.44898 0.449039 1.00098 1.00104 1.00098C1.55304 1.00098 2.00104 1.44898 2.00104 2.00098V21.001H23.0011C23.5531 21.001 24.0011 21.449 24.0011 22.001C24.0011 22.553 23.5531 23.001 23.0011 23.001H1.00104C0.449039 23.001 0.0010376 22.553 0.0010376 22.001V2.00098ZM5.20805 19.208C4.81805 19.598 4.18405 19.598 3.79404 19.208C3.40404 18.818 3.40404 18.184 3.79404 17.794L7.11104 14.477L9.03908 7.726C9.12308 7.434 9.33507 7.19599 9.61507 7.07899C9.89507 6.96099 10.2131 6.978 10.4801 7.123L15.1631 9.678L19.1601 3.46C19.3231 3.206 19.5931 3.03899 19.8941 3.00699C20.1951 2.97499 20.494 3.07998 20.708 3.29398L23.7081 6.29399C24.0981 6.68399 24.0981 7.31799 23.7081 7.70799C23.3181 8.09799 22.6841 8.09799 22.2941 7.70799L20.1711 5.58598L16.3421 11.542C16.0591 11.983 15.4821 12.13 15.0221 11.879L10.619 9.47701L8.96303 15.276C8.91603 15.439 8.82803 15.588 8.70803 15.708L5.20805 19.208Z" fill="#FF533C"/>
        </g>
    </g>
    <defs>
        <clipPath id="clip0_3152_188">
            <rect width="24" height="24" fill="white"/>
        </clipPath>
    </defs>
</svg>