<svg xmlns="http://www.w3.org/2000/svg" width="24" height="24" viewBox="0 0 24 24" fill="none">
    <g clip-path="url(#clip0_3152_198)">
        <path fill-rule="evenodd" clip-rule="evenodd" d="M22.001 23.001H2.00098C1.44898 23.001 1.00098 22.553 1.00098 22.001V14.001C1.00098 13.449 1.44898 13.001 2.00098 13.001H6.00099V9.001C6.00099 8.44899 6.44899 8.00099 7.00099 8.00099H11.001V6.00099C11.001 5.44899 11.449 5.00099 12.001 5.00099H16.001V2.00098C16.001 1.44898 16.449 1.00098 17.001 1.00098H22.001C22.553 1.00098 23.001 1.44898 23.001 2.00098V22.001C23.001 22.553 22.553 23.001 22.001 23.001ZM6.00099 15.001H3.00098V21.001H6.00099V15.001ZM11.001 10.001H8.00099V21.001H11.001V10.001ZM16.001 7.00099H13.001V21.001H16.001V7.00099ZM18.001 21.001H21.001V3.00098H18.001V21.001Z" fill="#FF533C"/>
    </g>
    <defs>
        <clipPath id="clip0_3152_198">
            <rect width="24" height="24" fill="white"/>
        </clipPath>
    </defs>
</svg>