<svg xmlns="http://www.w3.org/2000/svg" width="24" height="24" viewBox="0 0 24 24" fill="none">
    <g clip-path="url(#clip0_3151_158)">
        <mask id="mask0_3151_158" style="mask-type:luminance" maskUnits="userSpaceOnUse" x="0" y="-1" width="24" height="25">
            <path d="M24 -0.000244141H0V23.9996H24V-0.000244141Z" fill="white"/>
        </mask>
        <g mask="url(#mask0_3151_158)">
            <path fill-rule="evenodd" clip-rule="evenodd" d="M11.6621 23.9416C1.93603 20.4325 -0.213981 12.9765 0.00101954 3.97651C0.00801955 3.70051 0.128021 3.4405 0.333021 3.2555C0.539021 3.0715 0.811013 2.98049 1.08601 3.00449C5.08602 3.34449 6.96903 2.92351 9.25104 0.338502C9.44104 0.123501 9.71404 0.000488281 10.001 0.000488281H14.001C14.288 0.000488281 14.561 0.123501 14.751 0.338502C17.0331 2.92351 18.916 3.34449 22.916 3.00449C23.191 2.98049 23.4631 3.0715 23.6691 3.2555C23.8741 3.4405 23.9941 3.70051 24.0011 3.97651C24.2161 12.9765 22.0661 20.4325 12.34 23.9416C12.232 23.9806 12.117 24.0005 12.001 24.0005C11.885 24.0005 11.7701 23.9806 11.6621 23.9416ZM11.001 2.00049C10.699 2.00049 10.445 2.00049 10.445 2.00049C8.03001 4.6065 5.93402 5.28949 1.98702 5.07249C1.97702 12.2755 3.75903 18.3315 11.001 21.5245V2.00049ZM13.001 21.5245C20.2431 18.3315 22.025 12.2755 22.015 5.07249C18.068 5.28949 15.9721 4.6065 13.5571 2.00049H13.001V21.5245Z" fill="#FF533C"/>
        </g>
    </g>
    <defs>
        <clipPath id="clip0_3151_158">
            <rect width="24" height="24" fill="white"/>
        </clipPath>
    </defs>
</svg>