<?xml version="1.0" encoding="utf-8"?><svg xmlns="http://www.w3.org/2000/svg" xmlns:xlink="http://www.w3.org/1999/xlink"><symbol viewBox="0 0 24 24" id="iconDeposit" xmlns="http://www.w3.org/2000/svg"><g clip-path="url(#aclip0_3152_168)"><mask id="aa" maskUnits="userSpaceOnUse" x="0" y="-1" width="24" height="25"><path d="M24 0H0v24h24V0z"/></mask><g mask="url(#aa)"><path fill-rule="evenodd" clip-rule="evenodd" d="M18.675 24H5.327a5.326 5.326 0 01-5.326-5.326V5.326A5.327 5.327 0 015.327 0h13.348a5.327 5.327 0 015.326 5.326v13.348A5.326 5.326 0 0118.675 24zm-5.674-2h5.674a3.326 3.326 0 003.326-3.326V5.326A3.326 3.326 0 0018.675 2H5.327a3.326 3.326 0 00-3.326 3.326v13.348A3.326 3.326 0 005.327 22h5.674V10.415l-3.308 3.309a1 1 0 01-1.414-1.415l5.015-5.015a1 1 0 011.414 0l5.015 5.015a1 1 0 11-1.414 1.415l-3.308-3.31V22z"/></g></g><defs><clipPath id="aclip0_3152_168"><path d="M0 0h24v24H0z"/></clipPath></defs></symbol><symbol viewBox="0 0 24 24" id="iconFunctionality" xmlns="http://www.w3.org/2000/svg"><g clip-path="url(#bclip0_3152_188)"><mask id="ba" maskUnits="userSpaceOnUse" x="0" y="-1" width="24" height="25"><path d="M24 0H0v24h24V0z"/></mask><g mask="url(#ba)"><path fill-rule="evenodd" clip-rule="evenodd" d="M.001 2.001a1 1 0 012 0v19h21a1 1 0 010 2h-22a1 1 0 01-1-1v-20zm5.207 17.207a1 1 0 01-1.414-1.414l3.317-3.317 1.928-6.751a1.001 1.001 0 011.441-.603l4.683 2.555L19.16 3.46a.998.998 0 011.548-.166l3 3a1 1 0 01-1.414 1.414l-2.123-2.122-3.829 5.956a1 1 0 01-1.32.337L10.62 9.477l-1.656 5.799a1.006 1.006 0 01-.255.432l-3.5 3.5z"/></g></g><defs><clipPath id="bclip0_3152_188"><path d="M0 0h24v24H0z"/></clipPath></defs></symbol><symbol viewBox="0 0 24 24" id="iconInvestment" xmlns="http://www.w3.org/2000/svg"><g clip-path="url(#cclip0_3152_198)"><path fill-rule="evenodd" clip-rule="evenodd" d="M22.001 23.001h-20a1 1 0 01-1-1v-8a1 1 0 011-1h4v-4a1 1 0 011-1h4v-2a1 1 0 011-1h4v-3a1 1 0 011-1h5a1 1 0 011 1v20a1 1 0 01-1 1zm-16-8h-3v6h3v-6zm5-5h-3v11h3v-11zm5-3h-3v14h3v-14zm2 14h3v-18h-3v18z"/></g><defs><clipPath id="cclip0_3152_198"><path d="M0 0h24v24H0z"/></clipPath></defs></symbol><symbol viewBox="0 0 24 24" id="iconRechargeable" xmlns="http://www.w3.org/2000/svg"><g clip-path="url(#dclip0_3151_136)"><mask id="da" maskUnits="userSpaceOnUse" x="0" y="-1" width="24" height="25"><path d="M24 0H0v24h24V0z"/></mask><g mask="url(#da)" fill-rule="evenodd" clip-rule="evenodd"><path d="M2.256 19a11.941 11.941 0 01-2.255-7c0-6.622 5.377-12 12-12s12 5.378 12 12c0 6.623-5.377 12-12 12a1 1 0 010-2c5.52 0 10-4.48 10-10 0-5.519-4.48-10-10-10-5.519 0-10 4.481-10 10a9.95 9.95 0 002 5.998v-1.686a1 1 0 012 0V20a1 1 0 01-1 1h-4a1 1 0 010-2h1.255z"/><path d="M6.294 12.707a1 1 0 011.414-1.414l3.185 3.185L16.201 7.4a1.001 1.001 0 011.6 1.2l-6 8a1.002 1.002 0 01-1.507.107l-4-4z"/></g></g><defs><clipPath id="dclip0_3151_136"><path d="M0 0h24v24H0z"/></clipPath></defs></symbol><symbol viewBox="0 0 24 24" id="iconRegistration" xmlns="http://www.w3.org/2000/svg"><g clip-path="url(#eclip0_3149_126)"><mask id="ea" maskUnits="userSpaceOnUse" x="0" y="-1" width="24" height="25"><path d="M24 0H0v24h24V0z"/></mask><g mask="url(#ea)"><path fill-rule="evenodd" clip-rule="evenodd" d="M24.001 5v2a4 4 0 01-4 4h-16a4 4 0 01-4-4V5a4 4 0 014-4h16a4 4 0 014 4zm-2 0a2 2 0 00-2-2h-16a2 2 0 00-2 2v2a2 2 0 002 2h16a2 2 0 002-2V5zm-17 2a1 1 0 010-2h4a1 1 0 010 2h-4zm8 0a1 1 0 010-2h6a1 1 0 010 2h-6zm11 10v2a4 4 0 01-4 4h-16a4 4 0 01-4-4v-2a4 4 0 014-4h16a4 4 0 014 4zm-2 0a2 2 0 00-2-2h-16a2 2 0 00-2 2v2a2 2 0 002 2h16a2 2 0 002-2v-2zm-5.373 1.005a1.002 1.002 0 011.369-1.368 1 1 0 011.368 1.367 1.002 1.002 0 01-1.368 1.37 1.003 1.003 0 01-1.212-.157 1.003 1.003 0 01-.157-1.212zm-11.991 0a1 1 0 011.368-1.368 1.002 1.002 0 011.369 1.367c.223.383.171.884-.157 1.212-.328.328-.829.38-1.212.157a1.002 1.002 0 01-1.368-1.369zm6 0a1 1 0 011.368-1.368 1.002 1.002 0 011.37 1.367 1.003 1.003 0 01-1.369 1.369 1.002 1.002 0 01-1.369-1.369z"/></g></g><defs><clipPath id="eclip0_3149_126"><path d="M0 0h24v24H0z"/></clipPath></defs></symbol><symbol viewBox="0 0 24 24" id="iconRewards" xmlns="http://www.w3.org/2000/svg"><g clip-path="url(#fclip0_3152_178)"><mask id="fa" maskUnits="userSpaceOnUse" x="0" y="-1" width="24" height="25"><path d="M24 0H0v24h24V0z"/></mask><g mask="url(#fa)"><path fill-rule="evenodd" clip-rule="evenodd" d="M12.001.001c6.623 0 12 5.377 12 12s-5.377 12-12 12-12-5.377-12-12 5.377-12 12-12zm0 2c-5.519 0-10 4.481-10 10s4.481 10 10 10c5.52 0 10-4.481 10-10s-4.48-10-10-10zm.911 2.542l1.78 3.921 4.279.482a1 1 0 01.562 1.732l-3.178 2.904.864 4.218a1 1 0 01-1.473 1.071l-3.745-2.125-3.745 2.125A1 1 0 016.783 17.8l.864-4.218-3.178-2.904a1.001 1.001 0 01.562-1.732l4.28-.482 1.779-3.921a1.002 1.002 0 011.822 0zm-.91 2.832l-1.106 2.433a1 1 0 01-.798.58l-2.655.299 1.972 1.802c.26.237.376.594.305.939l-.536 2.617 2.323-1.319a1 1 0 01.988 0l2.323 1.319-.536-2.617a.998.998 0 01.305-.939l1.972-1.802-2.655-.299a1 1 0 01-.798-.58l-1.105-2.433z"/></g></g><defs><clipPath id="fclip0_3152_178"><path d="M0 0h24v24H0z"/></clipPath></defs></symbol><symbol viewBox="0 0 24 24" id="iconSecurity" xmlns="http://www.w3.org/2000/svg"><g clip-path="url(#gclip0_3151_158)"><mask id="ga" maskUnits="userSpaceOnUse" x="0" y="-1" width="24" height="25"><path d="M24 0H0v24h24V0z"/></mask><g mask="url(#ga)"><path fill-rule="evenodd" clip-rule="evenodd" d="M11.662 23.942C1.936 20.432-.214 12.976.001 3.977a1 1 0 011.085-.972c4 .34 5.883-.081 8.165-2.666a1 1 0 01.75-.339h4a1 1 0 01.75.339c2.282 2.585 4.165 3.005 8.165 2.665a1 1 0 011.085.973c.215 9-1.935 16.456-11.661 19.965a1 1 0 01-.678 0zM11.001 2h-.556C8.03 4.606 5.934 5.29 1.987 5.072c-.01 7.203 1.772 13.26 9.014 16.453V2zm2 19.524c7.242-3.193 9.024-9.249 9.014-16.452-3.947.217-6.043-.466-8.458-3.072h-.556v19.524z"/></g></g><defs><clipPath id="gclip0_3151_158"><path d="M0 0h24v24H0z"/></clipPath></defs></symbol><symbol viewBox="0 0 24 24" id="iconUnlimited" xmlns="http://www.w3.org/2000/svg"><g clip-path="url(#hclip0_3151_148)"><mask id="ha" maskUnits="userSpaceOnUse" x="0" y="-1" width="24" height="25"><path d="M24 0H0v24h24V0z"/></mask><g mask="url(#ha)"><path fill-rule="evenodd" clip-rule="evenodd" d="M.001 17.5a6.5 6.5 0 016.5-6.5h4.5V6.5a6.501 6.501 0 016.5-6.5 6.5 6.5 0 110 13h-4.5v4.5a6.5 6.5 0 11-13 0zm2 0a4.5 4.5 0 009 0V13h-4.5a4.5 4.5 0 00-4.5 4.5zM17.501 2a4.5 4.5 0 00-4.5 4.5V11h4.5a4.5 4.5 0 000-9z"/></g></g><defs><clipPath id="hclip0_3151_148"><path d="M0 0h24v24H0z"/></clipPath></defs></symbol></svg>