<svg width="210" height="104" viewBox="0 0 210 104" fill="none" xmlns="http://www.w3.org/2000/svg">
<g clip-path="url(#clip0_3152_264)">
<path d="M45.794 38.1304L36.6815 64.5756H42.0351L44.6094 56.8586H52.0132L54.6558 64.5756H60.1233L50.9881 38.1304H45.794ZM50.7147 52.4586H45.9307L47.9354 46.6371C48.0721 46.2309 48.2088 45.8473 48.3227 45.4637C48.4594 45.8699 48.5733 46.276 48.7328 46.7048L50.7147 52.4586Z" fill="#7E5D53"/>
<path d="M69.1219 52.5262C66.6615 51.5559 66.3881 51.1046 66.3881 50.4051C66.3881 49.5026 67.1399 48.961 68.3701 48.961C69.8053 48.961 70.9443 49.5251 71.4911 49.8636L72.539 50.5179L73.9287 46.321L73.2908 45.9149C72.0834 45.1251 70.2609 44.6738 68.4156 44.6738C64.2922 44.6738 61.3079 47.2461 61.3079 50.8113C61.3079 54.0831 64.2239 55.8205 66.6843 56.7005C69.1219 57.6031 69.3269 58.2349 69.3269 59.0021C69.3269 60.4462 67.8005 60.6493 66.8893 60.6493C65.4769 60.6493 63.9505 60.0626 63.0848 59.5436L62.0369 58.9344L60.67 63.199L61.3307 63.5826C62.8343 64.4626 64.839 64.959 66.821 64.959C71.3544 64.959 74.4071 62.4318 74.4071 58.6862C74.4071 54.918 71.3772 53.361 69.1219 52.5262Z" fill="#7E5D53"/>
<path d="M82.4489 40.4771L77.3459 42.0114V45.035H74.5894V49.3899H77.3459V58.032C77.3459 60.4463 77.8243 62.1612 78.8494 63.312C79.8518 64.3725 81.3326 64.9817 83.0639 64.9817C84.6131 64.9817 85.7293 64.6658 86.2533 64.4853L86.9367 64.2597L86.6634 59.8822L85.4787 60.2207C85.137 60.311 84.727 60.4012 83.8841 60.4012C83.269 60.4012 82.4261 60.4012 82.4261 57.9417V49.3899H87.0506V45.035H82.4489V40.4771Z" fill="#7E5D53"/>
<path d="M99.5119 44.8544L98.5779 44.7191C98.3045 44.6739 98.0311 44.6514 97.6666 44.6514C96.0492 44.6514 94.5684 45.3057 93.4294 46.4565L93.361 45.035H88.577L88.6453 46.0503C88.7364 47.5621 88.8048 49.277 88.8048 51.4883V64.5755H93.9761V54.2411C93.9761 53.7673 94.0217 53.2709 94.0672 52.9324C94.4545 50.9016 95.7302 49.638 97.4616 49.638C97.8717 49.638 98.1223 49.638 98.3501 49.6832L99.5347 49.9314L99.5119 44.8544Z" fill="#7E5D53"/>
<path d="M108.921 44.6738C103.157 44.6738 99.1247 48.8933 99.1247 54.9631C99.1247 60.8749 103.02 64.9816 108.624 64.9816C113.363 64.9816 118.443 61.7549 118.443 54.6698C118.466 48.7805 114.548 44.6738 108.921 44.6738ZM113.226 54.7826C113.226 58.1898 111.358 60.6718 108.807 60.6718C106.255 60.6718 104.41 58.2123 104.41 54.8728C104.41 52.7067 105.344 49.0287 108.875 49.0287C112.315 48.9836 113.226 52.7744 113.226 54.7826Z" fill="#7E5D53"/>
<path d="M135.415 40.2287C133.729 38.7169 131.155 37.9497 127.829 37.9497C125.596 37.9497 123.478 38.1077 121.519 38.4236L120.721 38.5589V64.5754H125.847V54.918C126.371 54.9631 126.918 54.9857 127.464 54.9857C130.927 54.9857 133.866 53.9251 135.734 52.0072C137.192 50.518 137.921 48.5323 137.921 46.0954C137.898 43.7261 137.01 41.6502 135.415 40.2287ZM132.772 46.2533C132.772 49.9538 129.492 50.4954 127.533 50.4954C126.872 50.4954 126.325 50.4728 125.87 50.4051V42.4625C126.371 42.3948 127.054 42.3723 127.92 42.3723C130.107 42.3723 132.772 43.0492 132.772 46.2533Z" fill="#7E5D53"/>
<path d="M153.617 59.3857V52.7969C153.617 47.5395 150.861 44.6738 145.894 44.6738C143.593 44.6738 141.179 45.3056 139.516 46.3436L138.855 46.7497L140.245 50.8113L141.293 50.1118C142.363 49.3897 143.912 48.961 145.416 48.961C146.464 48.9385 147.216 49.1867 147.717 49.6605C148.127 50.0667 148.378 50.6759 148.469 51.4431C144.436 51.5559 141.498 52.5036 139.675 54.2862C138.422 55.5272 137.784 57.0841 137.784 58.9569C137.784 61.958 139.971 64.9816 144.209 64.9816C146.008 64.9816 147.694 64.4175 149.015 63.4246L149.152 64.598H154.05L153.868 63.4923C153.708 62.4093 153.617 61.0328 153.617 59.3857ZM145.006 60.6944C144.231 60.6944 142.956 60.4236 142.956 58.5959C142.956 57.8964 143.161 57.3323 143.616 56.9036C144.209 56.3169 145.553 55.64 148.56 55.5949V57.6934C148.56 57.8513 148.537 58.1221 148.469 58.3928C148.104 59.4534 146.988 60.6944 145.006 60.6944Z" fill="#7E5D53"/>
<path d="M167.855 45.0349L164.097 56.0237C164.005 56.2944 163.914 56.5878 163.823 56.8585C163.732 56.5878 163.641 56.317 163.527 56.0688L159.426 45.0349H153.799L160.862 62.5673L160.884 62.6124C160.998 62.838 161.044 62.9734 161.044 63.0186C160.998 63.1088 160.93 63.2893 160.884 63.4021C160.269 64.6883 159.358 65.9068 158.447 66.6288L158.424 66.6514C157.399 67.5314 156.351 67.915 155.918 68.0278L155.007 68.3211L156.328 72.6986L157.171 72.5406C157.695 72.4504 159.518 72.0217 161.613 70.2842C164.119 68.0729 165.782 64.5755 167.969 58.8893L173.323 45.0349H167.855Z" fill="#7E5D53"/>
<path d="M55.5443 45.396C58.8704 42.0339 64.5201 40.0257 70.6482 40.0257C73.0403 40.0257 75.3639 40.319 77.5737 40.9283L77.756 40.9734L81.6743 39.8001L79.9202 39.1231C76.5713 37.8595 72.7213 37.1826 68.7574 37.1826C62.9938 37.1826 57.6174 38.559 53.6307 41.0637L53.1979 41.3344L54.8609 46.1406L55.5443 45.396Z" fill="#7E5D53"/>
</g>
<defs>
<clipPath id="clip0_3152_264">
<rect width="210" height="104" fill="white"/>
</clipPath>
</defs>
</svg>
