<svg width="210" height="104" viewBox="0 0 210 104" fill="none" xmlns="http://www.w3.org/2000/svg">
<g clip-path="url(#clip0_3152_279)">
<path d="M168.11 42.4929C166.441 41.3601 163.914 40.7888 160.602 40.7888H151.929L148.704 58.1273H137.342L138.072 54.1935H144.917L145.728 49.7753L138.887 49.7853L139.62 45.8688H146.67L147.608 40.7896H133.29L130.229 57.2363H124.975L128.057 40.7888H120.573L117.511 57.2355H112.393L115.478 40.7888H107.997L104.769 58.1273H93.3249L94.0485 54.1935H100.921L101.732 49.8004L94.8668 49.7939L95.5952 45.8696H102.724L103.657 40.7883H59.041L56.5017 54.5279L51.4444 40.7883H43.6794L39.4999 63.2112H46.9156L49.4453 49.0928L54.3527 63.2112H80.9301L84.1615 45.8675H88.3179L85.0869 63.2112H155.017L157.045 52.2632L160.324 63.2112H167.744L164.345 54.2653L165.123 54.0997C166.836 53.7359 168.171 52.9552 169.101 51.7844C170.03 50.6027 170.504 49.0859 170.504 47.2636C170.504 45.1421 169.72 43.5816 168.108 42.4916L168.11 42.4929ZM74.4768 58.1273H63.1253L63.8584 54.1935H70.9785L71.786 49.7628H64.7344L65.4135 45.87H76.7484L74.4746 58.1273H74.4768ZM161.997 50.5746C161.25 51.0915 160.169 51.3428 158.69 51.3428H157.223L158.348 45.3255H159.427C160.655 45.3255 161.551 45.5206 162.169 45.9181C162.651 46.2303 163.225 46.8476 163.225 48.0145C163.223 49.4258 162.556 50.1845 161.994 50.5746H161.997Z" fill="#7E5D53"/>
</g>
<defs>
<clipPath id="clip0_3152_279">
<rect width="210" height="104" fill="white"/>
</clipPath>
</defs>
</svg>
