<svg width="210" height="104" viewBox="0 0 210 104" fill="none" xmlns="http://www.w3.org/2000/svg">
<g clip-path="url(#clip0_3152_235)">
<path d="M27.4528 60.2539L30.4012 43.1162H35.1178L32.1673 60.2539H27.4528Z" fill="#7E5D53"/>
<path d="M49.206 43.4855C48.2716 43.1381 46.8074 42.7656 44.9789 42.7656C40.3185 42.7656 37.0364 45.0899 37.0088 48.4215C36.9823 50.8832 39.3523 52.2579 41.1406 53.0774C42.9766 53.9179 43.5942 54.4531 43.5847 55.2033C43.573 56.3524 42.1195 56.877 40.7634 56.877C38.8755 56.877 37.8733 56.6168 36.3244 55.9778L35.7163 55.7049L35.0542 59.5413C36.156 60.0198 38.1933 60.4343 40.3079 60.4563C45.266 60.4563 48.4845 58.1583 48.5205 54.6C48.5385 52.6503 47.2821 51.1676 44.5604 49.9441C42.9119 49.1508 41.9023 48.6219 41.914 47.8192C41.914 47.1067 42.7679 46.3449 44.6144 46.3449C46.157 46.3218 47.2736 46.6544 48.1444 47.0018L48.5671 47.199L49.206 43.4855Z" fill="#7E5D53"/>
<path d="M61.3427 43.1162H57.6983C56.569 43.1162 55.7246 43.4205 55.2288 44.537L48.2249 60.2434H53.1767C53.1767 60.2434 53.9872 58.1311 54.1694 57.6673C54.7107 57.6673 59.5226 57.6746 60.2102 57.6746C60.3511 58.2748 60.7834 60.2434 60.7834 60.2434H65.1598L61.3427 43.1162ZM55.5604 54.1825C55.9503 53.195 57.4398 49.3912 57.4398 49.3912C57.4123 49.4374 57.8265 48.3996 58.0649 47.7553L58.3838 49.2338C58.3838 49.2338 59.2864 53.3241 59.476 54.1825H55.5604Z" fill="#7E5D53"/>
<path d="M6.91802 43.1162L6.85764 43.4719C8.72222 43.9189 10.3876 44.5664 11.8454 45.3712L16.0301 60.2266L21.02 60.2214L28.4455 43.1162H23.4493L18.8323 54.8026L18.3397 52.428C18.3174 52.3545 18.292 52.2811 18.2666 52.2076L16.6615 44.5622C16.3755 43.4772 15.5481 43.154 14.5236 43.1162H6.91802Z" fill="#7E5D53"/>
<path fill-rule="evenodd" clip-rule="evenodd" d="M130.954 72.7812C130.954 72.7145 130.954 72.6487 130.918 72.5819C130.881 72.5597 130.856 72.4929 130.82 72.4484C130.785 72.4261 130.722 72.3816 130.684 72.3593C130.621 72.3593 130.548 72.3148 130.484 72.3148C130.447 72.3148 130.386 72.3593 130.31 72.3593C130.247 72.4039 130.212 72.4261 130.173 72.4484C130.111 72.4929 130.075 72.5597 130.075 72.5819C130.037 72.6487 130.037 72.7145 130.037 72.7812C130.037 72.8258 130.037 72.8915 130.075 72.9583C130.075 73.0028 130.113 73.0696 130.173 73.0919C130.21 73.1364 130.236 73.1576 130.31 73.2021C130.373 73.2244 130.447 73.2244 130.484 73.2244C130.548 73.2244 130.621 73.2244 130.684 73.2021C130.722 73.1576 130.783 73.1364 130.82 73.0919C130.858 73.0696 130.883 73.0028 130.918 72.9583C130.954 72.8915 130.954 72.8258 130.954 72.7812ZM130.818 72.6477C130.818 72.6922 130.856 72.7145 130.856 72.7812C130.856 72.8258 130.818 72.848 130.818 72.9138C130.781 72.9583 130.78 72.9806 130.755 73.0251C130.717 73.0696 130.693 73.0919 130.619 73.0919C130.58 73.1141 130.556 73.1141 130.482 73.1141C130.445 73.1141 130.42 73.1141 130.345 73.0919C130.308 73.0919 130.283 73.0473 130.247 73.0251C130.21 72.9806 130.184 72.9583 130.184 72.9138C130.146 72.8693 130.146 72.8258 130.146 72.7812C130.146 72.7145 130.146 72.6922 130.184 72.6477C130.184 72.5809 130.223 72.5597 130.247 72.5152C130.285 72.4706 130.31 72.4706 130.345 72.4484C130.409 72.4261 130.445 72.4261 130.482 72.4261C130.545 72.4261 130.58 72.4261 130.619 72.4484C130.682 72.4929 130.717 72.4929 130.755 72.5152C130.794 72.5374 130.781 72.5809 130.818 72.6477ZM130.545 72.8258C130.608 72.8258 130.608 72.7812 130.644 72.7812C130.682 72.759 130.682 72.7145 130.682 72.6922C130.682 72.6477 130.682 72.6264 130.644 72.5819C130.608 72.5819 130.58 72.5597 130.507 72.5597H130.308V72.9806H130.406V72.8035H130.445L130.58 72.9806H130.679L130.545 72.8258ZM130.135 57.5463V58.1018H130.234V57.5463H130.469V57.436H129.896V57.5463H130.135ZM131.354 57.436H131.179L130.979 57.8569L130.78 57.436H130.605V58.1018H130.704V57.5908L130.903 58.0127H131.04L131.215 57.5908V58.1018H131.351L131.354 57.436Z" fill="#7E5D53"/>
<path d="M85.9037 73.1316V70.3144C85.9037 69.2368 85.2409 68.5311 84.1032 68.5311C83.5344 68.5311 82.9158 68.7171 82.4906 69.3298C82.1592 68.8156 81.6842 68.5311 80.9718 68.5311C80.4968 68.5311 80.0219 68.6733 79.6463 69.1876V68.6241H78.6522V73.1316H79.6463V70.6426C79.6463 69.844 80.0716 69.4665 80.7343 69.4665C81.3971 69.4665 81.7284 69.8877 81.7284 70.6426V73.1316H82.7225V70.6426C82.7225 69.844 83.1975 69.4665 83.8105 69.4665C84.4733 69.4665 84.8046 69.8877 84.8046 70.6426V73.1316H85.9037ZM100.65 68.6241H99.0369V67.262H98.0428V68.6241H97.1426V69.5158H98.0428V71.5835C98.0428 72.6174 98.4681 73.2246 99.6058 73.2246C100.031 73.2246 100.506 73.0824 100.837 72.8964L100.55 72.0485C100.263 72.2345 99.9316 72.2837 99.6941 72.2837C99.2192 72.2837 99.0314 71.9992 99.0314 71.5343V69.5158H100.644V68.6241H100.65ZM109.088 68.5257C108.52 68.5257 108.139 68.8101 107.901 69.1821V68.6186H106.907V73.1261H107.901V70.5879C107.901 69.8385 108.232 69.4118 108.851 69.4118C109.039 69.4118 109.276 69.4611 109.47 69.5048L109.757 68.5639C109.558 68.5257 109.276 68.5257 109.088 68.5257ZM96.3363 68.9961C95.8613 68.6679 95.1986 68.5257 94.4861 68.5257C93.3484 68.5257 92.5918 69.0891 92.5918 69.9807C92.5918 70.7302 93.1606 71.1568 94.1548 71.2936L94.6297 71.3428C95.1489 71.4358 95.436 71.578 95.436 71.8133C95.436 72.1415 95.055 72.3767 94.3922 72.3767C93.7295 72.3767 93.2048 72.1415 92.8735 71.9063L92.3985 72.6557C92.9176 73.0331 93.6301 73.2191 94.3425 73.2191C95.668 73.2191 96.4302 72.6064 96.4302 71.764C96.4302 70.9654 95.8116 70.5442 94.8672 70.4019L94.3922 70.3527C93.967 70.3035 93.6356 70.2105 93.6356 69.9315C93.6356 69.6033 93.967 69.4173 94.4916 69.4173C95.0605 69.4173 95.6293 69.6525 95.9165 69.7947L96.3363 68.9961ZM122.785 68.5257C122.216 68.5257 121.835 68.8101 121.598 69.1821V68.6186H120.604V73.1261H121.598V70.5879C121.598 69.8385 121.929 69.4118 122.548 69.4118C122.735 69.4118 122.973 69.4611 123.166 69.5048L123.453 68.5749C123.26 68.5257 122.978 68.5257 122.785 68.5257ZM110.083 70.8779C110.083 72.2399 111.032 73.2246 112.502 73.2246C113.164 73.2246 113.639 73.0824 114.114 72.7104L113.639 71.9117C113.258 72.1962 112.883 72.3329 112.452 72.3329C111.645 72.3329 111.077 71.7695 111.077 70.8779C111.077 70.03 111.645 69.4665 112.452 69.4228C112.877 69.4228 113.258 69.565 113.639 69.844L114.114 69.0453C113.639 68.6679 113.164 68.5311 112.502 68.5311C111.032 68.5257 110.083 69.5158 110.083 70.8779ZM119.278 73.1316V68.6241H118.284V69.1876C117.953 68.7663 117.478 68.5311 116.859 68.5311C115.578 68.5311 114.584 69.5158 114.584 70.8779C114.584 72.2399 115.578 73.2246 116.859 73.2246C117.522 73.2246 117.997 72.9894 118.284 72.5682V73.1316H119.278ZM115.627 70.8779C115.627 70.0792 116.147 69.4228 117.003 69.4228C117.809 69.4228 118.378 70.0354 118.378 70.8779C118.378 71.6765 117.809 72.3329 117.003 72.3329C116.152 72.2837 115.627 71.671 115.627 70.8779ZM103.731 68.5257C102.406 68.5257 101.456 69.4665 101.456 70.8724C101.456 72.2837 102.406 73.2191 103.781 73.2191C104.444 73.2191 105.106 73.0331 105.631 72.6064L105.156 71.9008C104.775 72.1852 104.3 72.3712 103.831 72.3712C103.212 72.3712 102.599 72.0868 102.456 71.2936H105.819V70.9161C105.863 69.4665 105.007 68.5257 103.731 68.5257ZM103.731 69.3735C104.35 69.3735 104.775 69.751 104.869 70.4512H102.5C102.594 69.844 103.019 69.3735 103.731 69.3735ZM128.429 73.1316V66.8408H127.435V69.1876C127.104 68.7663 126.629 68.5311 126.01 68.5311C124.729 68.5311 123.735 69.5158 123.735 70.8779C123.735 72.2399 124.729 73.2246 126.01 73.2246C126.673 73.2246 127.148 72.9894 127.435 72.5682V73.1316H128.429ZM124.779 70.8779C124.779 70.0792 125.298 69.4228 126.154 69.4228C126.96 69.4228 127.529 70.0354 127.529 70.8779C127.529 71.6765 126.96 72.3329 126.154 72.3329C125.298 72.2837 124.779 71.671 124.779 70.8779ZM91.4983 73.1316V68.6241H90.5042V69.1876C90.1728 68.7663 89.6978 68.5311 89.0793 68.5311C87.798 68.5311 86.8039 69.5158 86.8039 70.8779C86.8039 72.2399 87.798 73.2246 89.0793 73.2246C89.742 73.2246 90.217 72.9894 90.5042 72.5682V73.1316H91.4983ZM87.8035 70.8779C87.8035 70.0792 88.3227 69.4228 89.1787 69.4228C89.985 69.4228 90.5539 70.0354 90.5539 70.8779C90.5539 71.6765 89.985 72.3329 89.1787 72.3329C88.3227 72.2837 87.8035 71.671 87.8035 70.8779Z" fill="#7E5D53"/>
<path fill-rule="evenodd" clip-rule="evenodd" d="M103.41 61.2711C100.496 63.4988 96.8426 64.8248 92.8788 64.8248C83.3522 64.8248 75.6179 57.1631 75.6179 47.7272C75.6179 38.2912 83.3522 30.6306 92.8788 30.6306C96.8426 30.6306 100.496 31.9556 103.41 34.1832C106.325 31.9556 109.978 30.6306 113.941 30.6306C123.469 30.6306 131.203 38.2912 131.203 47.7272C131.203 57.1631 123.469 64.8248 113.941 64.8248C109.978 64.8248 106.325 63.4988 103.41 61.2711ZM101.795 35.5831C99.2922 33.7766 96.2105 32.7106 92.8788 32.7106C84.5114 32.7106 77.7179 39.4394 77.7179 47.7272C77.7179 56.0149 84.5114 62.7448 92.8788 62.7448C96.2105 62.7448 99.2922 61.6777 101.795 59.8712C98.637 56.772 96.6798 52.4737 96.6798 47.7272C96.6798 42.9806 98.637 38.6823 101.795 35.5831ZM105.025 59.8712C107.528 61.6777 110.61 62.7448 113.941 62.7448C122.309 62.7448 129.103 56.0149 129.103 47.7272C129.103 39.4394 122.309 32.7106 113.941 32.7106C110.61 32.7106 107.528 33.7766 105.025 35.5831C108.184 38.6823 110.141 42.9806 110.141 47.7272C110.141 52.4737 108.184 56.772 105.025 59.8712ZM103.41 58.5265C106.264 55.7955 108.041 51.9652 108.041 47.7272C108.041 43.4892 106.264 39.6599 103.41 36.9278C100.555 39.6599 98.7798 43.4892 98.7798 47.7272C98.7798 51.9652 100.555 55.7955 103.41 58.5265Z" fill="#7E5D53"/>
<path fill-rule="evenodd" clip-rule="evenodd" d="M184.955 51.25V59.7755H189.737V54.7234H195.157C197.438 54.7066 199.375 53.2634 200.106 51.25H184.955Z" fill="#7E5D53"/>
<path fill-rule="evenodd" clip-rule="evenodd" d="M184.318 44.2244C184.596 47.7091 187.925 50.4606 191.99 50.4606H200.305C200.366 50.141 200.398 49.8112 200.398 49.4739C200.398 46.5872 198.047 44.2458 195.138 44.2245L184.318 44.2244Z" fill="#7E5D53"/>
<path fill-rule="evenodd" clip-rule="evenodd" d="M177.24 50.3777L177.244 50.3698L177.244 50.3699C177.294 50.2828 177.387 50.2238 177.495 50.2238C177.651 50.2238 177.778 50.3468 177.782 50.5001H177.782V59.6966H182.564V44.2244H177.782C177.176 44.2443 176.491 44.6851 176.236 45.2261L172.43 53.3093C172.421 53.3424 172.406 53.3732 172.387 53.4009L172.386 53.4036L172.386 53.4034C172.328 53.4855 172.232 53.5393 172.124 53.5393C171.948 53.5393 171.805 53.3979 171.805 53.2235V44.2244H167.023V59.6966H171.805V59.6949C172.405 59.6639 173.074 59.228 173.325 58.6949L177.23 50.3986C177.233 50.3915 177.237 50.3845 177.24 50.3777Z" fill="#7E5D53"/>
<path fill-rule="evenodd" clip-rule="evenodd" d="M159.384 50.6422L156.589 59.6966H153.149L150.353 50.6367C150.326 50.4916 150.197 50.3817 150.043 50.3817C149.869 50.3817 149.728 50.5213 149.728 50.6935C149.728 50.6948 149.728 50.6961 149.728 50.6975V59.6966H144.946V44.2244H150.273C151.153 44.2244 152.075 44.9007 152.332 45.7337L154.659 53.2734C154.775 53.6485 154.963 53.6481 155.079 53.2734L157.406 45.7337C157.663 44.9001 158.585 44.2244 159.465 44.2244H164.791V59.6966H160.009V50.6975C160.009 50.6961 160.009 50.6948 160.009 50.6935C160.009 50.5213 159.868 50.3817 159.695 50.3817C159.538 50.3817 159.409 50.4944 159.384 50.6422Z" fill="#7E5D53"/>
</g>
<defs>
<clipPath id="clip0_3152_235">
<rect width="210" height="104" fill="white"/>
</clipPath>
</defs>
</svg>
