<svg width="210" height="104" viewBox="0 0 210 104" fill="none" xmlns="http://www.w3.org/2000/svg">
<g clip-path="url(#clip0_3152_357)">
<path d="M50.1541 32.2466C53.2216 32.2453 56.2495 32.9286 59.0144 34.2455L60.2831 34.9L58.4328 36.5233L55.6614 33.6957L50.885 37.8454L48.0725 34.8647L39.2889 42.5973L44.9125 48.6713L42.7186 50.5563L48.2668 56.6304L46.0729 58.5154L54.0093 67.1552L58.7064 62.9309L62.8035 67.4602C61.9933 68.0624 61.1078 68.6684 60.1602 69.196C57.1244 70.8794 53.7014 71.7617 50.2215 71.7591C39.0616 71.7356 30.0084 62.8733 30.0084 51.9741C29.9687 41.1482 39.0219 32.2466 50.1541 32.2466ZM46.4535 50.7671L51.2696 46.5428L55.5847 51.258L50.7687 55.4823L46.4535 50.7671ZM49.8832 58.9147L54.6596 54.6524L59.013 59.365L54.197 63.5893L49.8832 58.9147ZM43.0265 42.7361L47.8399 38.5117L52.1537 43.2269L47.3377 47.4513L43.0265 42.7361ZM51.8458 40.4714L55.4142 37.3035L58.6522 40.8117L55.0838 44.0189L51.8458 40.4714ZM58.2425 54.9927L61.8109 51.8248L65.049 55.3698L61.4792 58.5364L58.2425 54.9927ZM61.4145 62.1219L64.9829 58.9539L68.2169 62.4622L64.6485 65.6668L61.4145 62.1219ZM62.8802 45.8385L65.2684 43.7257L67.4253 46.065L65.0371 48.1765L62.8802 45.8385ZM59.7981 38.8612L62.1863 36.7118L64.3445 39.0877L61.955 41.2005L59.7981 38.8612ZM65.9226 52.8184L68.3108 50.7056L70.5047 53.0449L68.0782 55.1564L65.9226 52.8184ZM55.175 47.5756L58.7434 44.4077L61.9788 47.916L58.4104 51.0839L55.175 47.5756ZM80.0826 42.2949H82.0175L85.0387 53.7413H85.1907L87.4084 42.2949H89.9513L86.4423 57.62H84.0951L81.1399 46.8229H80.9866L78.116 57.62H75.7701L72.2347 42.2805H74.6692L77.1036 53.7269H77.2556L80.0826 42.2949ZM93.0399 51.1048H98.0159C97.9075 48.8336 96.8 47.9265 95.637 47.9265C94.3114 47.9265 93.2884 48.9436 93.0505 51.1048M99.7644 55.1734V56.8176C98.7864 57.3805 97.4833 57.8124 95.9317 57.8124C92.2813 57.8124 90.7813 55.5609 90.7813 52.1442C90.7813 48.8546 92.4545 46.476 95.7149 46.476C98.4309 46.476 100.105 48.2302 100.105 51.7554V52.5566H93.0214C93.0214 55.1524 94.0854 56.3005 96.3255 56.3005C97.4992 56.3005 98.5723 55.8881 99.7803 55.1747M105.163 56.091C105.859 56.3921 106.62 56.4392 107.164 56.4392C108.773 56.4392 109.989 55.4444 109.989 51.9387C109.989 49.1897 108.989 48.3035 107.533 48.3035C106.663 48.3035 106.033 48.5417 105.163 49.0169V56.091ZM105.186 47.4159C105.836 47.0703 106.944 46.6148 108.12 46.6148C110.816 46.6148 112.272 48.4736 112.272 51.9374C112.272 55.9955 110.316 57.9525 107.166 57.9525C105.691 57.9119 104.243 57.5506 102.926 56.8922V41.7647L105.173 41.2241V47.3767L105.186 47.4159ZM122.531 57.6266H121.141L116.705 46.7653H116.511V57.6266H114.555V42.2844H117.198L122.066 54.3801H122.174L126.826 42.2844H129.522V57.6266H127.149V46.493H126.953L122.531 57.6266ZM139.1 52.1442C139.1 49.225 137.906 47.9906 136.428 47.9906C134.994 47.9906 133.754 49.2237 133.754 52.1442C133.754 55.1092 134.886 56.2979 136.428 56.2979C137.97 56.2979 139.1 55.1092 139.1 52.1442ZM131.472 52.1442C131.472 48.3571 133.56 46.476 136.428 46.476C139.296 46.476 141.384 48.3571 141.384 52.1442C141.384 55.8436 139.407 57.8124 136.428 57.8124C133.449 57.8124 131.472 55.8423 131.472 52.1442ZM143.075 48.0639C144.053 47.4788 146.118 46.4616 148.617 46.4616C151.225 46.4616 152.202 47.4788 152.202 49.7081V57.5415H149.955V50.2068C149.955 48.4985 149.109 48.1948 147.999 48.1948C147.131 48.1948 146.02 48.5849 145.348 48.9737V57.5415H143.101L143.075 48.0639ZM156.986 51.0904H161.963C161.858 48.8192 160.747 47.9121 159.584 47.9121C158.259 47.9121 157.239 48.9292 156.998 51.0904M163.712 55.159V56.8032C162.734 57.3661 161.431 57.798 159.879 57.798C156.231 57.798 154.729 55.5465 154.729 52.1298C154.729 48.8402 156.402 46.4616 159.662 46.4616C162.38 46.4616 164.054 48.2158 164.054 51.741V52.5422H156.968C156.968 55.138 158.033 56.2861 160.272 56.2861C161.444 56.2861 162.518 55.8737 163.726 55.1603M173.084 46.4616H175.389L171.454 57.2784C170.366 60.263 169.041 61.8208 166.543 61.8208V60.0483C168.023 60.0483 168.922 58.8793 169.456 57.277L165.282 46.4603H167.661L170.443 54.422H170.575L173.084 46.4616Z" fill="#7E5D53"/>
</g>
<defs>
<clipPath id="clip0_3152_357">
<rect width="210" height="104" fill="white"/>
</clipPath>
</defs>
</svg>
