<svg width="210" height="104" viewBox="0 0 210 104" fill="none" xmlns="http://www.w3.org/2000/svg">
<g clip-path="url(#clip0_3152_364)">
<path d="M30.9351 60.248C29.568 61.4481 27.8092 62.1449 26.0106 62.1449C22.9624 62.3768 20.3048 60.093 20.1095 57.0728V56.5705C19.9919 54.5186 21.2036 52.6217 23.1577 51.8864C24.6035 51.2665 26.1282 50.9181 27.7305 50.8017L30.7797 50.5697V49.9114C30.7797 47.976 29.4892 47.1242 27.301 47.1242C25.6987 47.2022 24.1352 47.6276 22.7282 48.4014L21.2036 45.6142C23.2753 44.492 25.5811 43.9117 27.9258 43.8722C32.655 43.8722 34.8831 46.0021 34.8831 50.1049V57.2278C34.7655 58.7379 34.9219 60.2864 35.3125 61.757H31.5997L30.9351 60.248ZM28.0822 53.7833C27.1834 53.7438 26.2458 53.9768 25.4635 54.4406C24.7988 54.867 24.3694 55.6023 24.3694 56.376C24.3694 57.6542 25.4247 58.7379 26.7141 58.7379H26.9493C28.2387 58.6994 29.4504 58.2345 30.4279 57.4608V53.7833H28.0822ZM37.423 53.3185C37.423 47.7441 41.5663 44.0666 46.9602 44.0666C47.7414 44.0271 48.5625 44.1051 49.3437 44.2601V35.8975H53.6823V61.0602C51.6107 61.9515 49.4224 62.3768 47.1555 62.3384C41.7616 62.1449 37.423 59.1643 37.423 53.3185ZM49.3836 58.273V47.9375C48.6801 47.7441 47.9367 47.6661 47.2332 47.7441C44.3026 47.6661 41.8792 49.9499 41.8005 52.8536V53.3569C41.5663 56.1056 43.5991 58.506 46.3743 58.7379C46.6473 58.7764 46.9602 58.7764 47.2332 58.7379C47.859 58.506 48.7189 58.506 49.3836 58.273ZM55.2458 44.5305H59.8185L64.1571 56.376L68.4957 44.569H72.8343L65.6817 61.99H62.4372L55.2458 44.5305Z" fill="#7E5D53"/>
<path d="M73.4632 53.257C73.3414 48.3327 77.3294 44.2132 82.3725 44.0115H82.7274C84.3717 44.1123 85.9646 44.4129 87.4566 45.1159V48.7351C86.1672 47.8303 84.6762 47.4279 83.1128 47.5277C79.8767 47.5277 77.9184 49.8396 77.9184 53.0563C77.9184 56.6745 79.8767 58.6848 82.9206 58.6848C84.3717 58.6848 85.7714 58.2813 87.0608 57.5782L88.3491 60.5942C86.5127 61.6997 84.4011 62.3019 82.2612 62.3019C77.4511 62.3019 73.5042 58.4841 73.4233 53.7604C73.4632 53.6595 73.4632 53.4588 73.4632 53.257ZM99.9569 60.1917C98.5971 61.498 96.8321 62.201 94.9547 62.201C91.9107 62.4017 89.2521 60.0929 89.0589 57.078V56.5746C88.9371 54.5643 90.1551 52.6559 92.1029 51.9518C93.554 51.2488 95.0765 50.9462 96.6798 50.8453L99.7238 50.6446V49.9394C99.7238 48.03 98.4354 47.2261 96.2535 47.2261C94.6502 47.2261 93.0878 47.6296 91.6776 48.4335L90.2265 45.6193C92.2961 44.5138 94.6502 43.9116 96.9948 43.8107C101.723 43.8107 103.945 46.0207 103.945 50.0403V57.1757C103.834 58.6837 103.986 60.2937 104.382 61.7008H100.627L99.9569 60.1917ZM107.344 57.1757C108.755 58.0805 110.398 58.6848 112.082 58.6848C113.798 58.6848 115.126 58.2833 115.126 56.7754C115.126 53.7604 106.837 54.7661 106.837 49.2385C106.837 46.2235 109.454 44.1123 113.564 44.1123C115.319 44.1123 117.086 44.4119 118.759 44.9152V48.5344C117.197 47.8303 115.482 47.5277 113.757 47.5277C112.235 47.5277 111.373 47.9312 111.373 49.0367C111.373 51.7501 119.662 50.7454 119.662 56.7754C119.662 60.5953 116.416 62.1033 112.509 62.1033C110.236 62.1033 107.973 61.498 105.984 60.3925C106.014 60.3925 107.344 57.1757 107.344 57.1757ZM122.118 35.8704H126.461V46.4243C128.104 45.0171 130.175 44.2132 132.366 44.1123C135.177 44.1123 137.988 45.3177 137.988 50.3419V61.7008H133.655V51.5494C133.655 49.4392 133.219 47.6286 131.037 47.6286C129.394 47.8293 127.83 48.5323 126.653 49.6378V61.7008H122.321V35.8704H122.118ZM97.146 53.7604C96.2535 53.7604 95.3096 53.9622 94.5284 54.4645C93.869 54.7661 93.4322 55.569 93.4322 56.273C93.4322 57.5793 94.4874 58.6848 95.7768 58.6848H96.0099C97.3088 58.6848 98.5163 58.1814 99.4907 57.3775V53.7604C99.5306 53.7604 97.146 53.7604 97.146 53.7604Z" fill="#7E5D53"/>
<path fill-rule="evenodd" clip-rule="evenodd" d="M166.211 28.5347C179.286 28.5347 189.903 39.0501 189.903 52.0013C189.903 64.9535 179.286 75.469 166.211 75.469C153.134 75.469 142.517 64.9535 142.517 52.0013C142.517 39.0501 153.134 28.5347 166.211 28.5347ZM174.551 53.0351L175.728 55.5851L177.428 53.0351H174.551ZM171.861 47.209L173.539 50.8448H178.754L181.177 47.209H171.861ZM159.926 50.8448L158.91 53.0351H154.228L156.651 56.6709H157.224L153.614 64.4533L158.607 64.3524L162.031 56.6709H167.479L165.769 53.0351H163.651L165.201 49.5583L165.631 48.7617L172.918 64.2463L177.96 64.4533L165.89 38.3138L165.843 38.0881L165.815 38.1495L165.786 38.0881L165.771 38.2441L161.613 47.209H150.478L152.902 50.8448H159.926Z" fill="#7E5D53"/>
</g>
<defs>
<clipPath id="clip0_3152_364">
<rect width="210" height="104" fill="white"/>
</clipPath>
</defs>
</svg>
