<svg width="210" height="104" viewBox="0 0 210 104" fill="none" xmlns="http://www.w3.org/2000/svg">
<g clip-path="url(#clip0_3152_375)">
<path fill-rule="evenodd" clip-rule="evenodd" d="M99.1695 37.1189C99.285 37.1189 99.4026 37.2332 99.4026 37.3476V57.4447C99.4026 62.9276 94.9496 67.3767 89.4906 67.4152H89.2964C83.8752 67.4152 79.4221 63.1584 79.2678 57.7515C79.2678 57.6735 79.3066 57.5975 79.3455 57.5975C79.3833 57.5206 79.4998 57.4821 79.5765 57.4821H85.424C85.5416 57.4821 85.6571 57.5976 85.6571 57.712C85.6571 58.3641 85.8503 59.0161 86.1999 59.5912C86.8961 60.6271 88.134 61.2792 89.4119 61.2792H89.5295C90.1091 61.2792 90.6897 61.1263 91.1937 60.8569C92.4716 60.1664 93.2066 58.8632 93.2066 57.4447V37.3476C93.2066 37.2332 93.3231 37.1189 93.4407 37.1189H99.1695ZM162.051 52.0751C162.594 53.4552 162.903 54.9123 162.864 56.3309C162.864 57.8285 162.594 59.2844 162.051 60.6656C161.508 61.9697 160.734 63.12 159.765 64.1163C158.76 65.0762 157.598 65.8427 156.32 66.3804C153.532 67.4526 150.473 67.4526 147.686 66.3804C146.369 65.8812 145.207 65.1147 144.201 64.1163C143.233 63.12 142.497 61.9312 141.993 60.6656C141.451 59.2844 141.18 57.8285 141.18 56.3309C141.142 54.8738 141.451 53.4167 141.993 52.0367C142.497 50.771 143.233 49.6197 144.201 48.6244C145.207 47.6645 146.369 46.8595 147.686 46.3603C150.435 45.2475 153.532 45.2475 156.32 46.3603C158.952 47.4346 161.005 49.5053 162.051 52.0751ZM148.886 52.4953C148.421 52.956 148.112 53.5322 147.917 54.1458C147.375 55.6413 147.375 57.2523 147.917 58.7093C148.151 59.3229 148.499 59.8606 148.925 60.3192C149.311 60.7415 149.776 61.0493 150.318 61.2792C151.403 61.7014 152.641 61.7014 153.764 61.2792C154.306 61.0493 154.81 60.7415 155.197 60.3192C155.623 59.8606 155.973 59.3229 156.205 58.7093C156.708 57.2138 156.708 55.6029 156.205 54.1073C155.973 53.5322 155.623 52.9945 155.197 52.5358C154.771 52.151 154.306 51.8058 153.764 51.6144C152.641 51.1922 151.403 51.1922 150.28 51.6144C149.738 51.8058 149.272 52.1136 148.886 52.4953ZM128.443 37.3476C128.443 37.2332 128.558 37.1178 128.675 37.1178H134.406C134.521 37.1178 134.637 37.2332 134.637 37.3476V45.7082C134.637 45.8226 134.753 45.9381 134.869 45.9381H138.277C138.393 45.9381 138.509 46.0546 138.509 46.2075V51.4616C138.509 51.576 138.393 51.6903 138.277 51.6903H134.869C134.753 51.6903 134.637 51.7673 134.637 51.9223V58.9392C134.753 60.0894 135.799 60.8944 136.922 60.8944H138.277C138.393 60.8944 138.509 61.0108 138.509 61.1263V66.9555C138.509 67.0699 138.432 67.1468 138.316 67.1853C137.889 67.2228 137.463 67.2612 137.038 67.2612C132.276 67.2612 128.443 63.3883 128.443 58.6334V51.5375C128.443 51.4231 128.327 51.3086 128.209 51.3086H126.352C126.234 51.3086 126.119 51.2317 126.119 51.0768V45.7852C126.119 45.6698 126.234 45.5554 126.352 45.5554H128.209C128.327 45.5554 128.443 45.441 128.443 45.3245V37.3476ZM184.354 67.4142H178.623C178.507 67.4142 178.391 67.2997 178.391 67.1853V55.2201C178.43 54.6834 178.352 54.1458 178.235 53.6081C178.08 53.1474 177.811 52.6887 177.461 52.3424C177.307 52.228 177.191 52.0752 177.036 51.9982C176.533 51.6529 175.602 51.5 175.021 51.5C173.938 51.5 172.969 52.0367 172.349 52.9186C172.117 53.2639 172.002 53.6466 171.924 54.0688C171.848 54.413 171.848 54.7209 171.848 55.0651V67.1853C171.848 67.2997 171.73 67.4142 171.614 67.4142H165.885C165.767 67.4142 165.651 67.2997 165.651 67.1853V46.169C165.651 46.0546 165.767 45.9381 165.885 45.9381H171.614C171.77 45.9381 171.848 46.0546 171.848 46.169V47.2423C171.848 47.2797 171.848 47.3203 171.886 47.3587C171.924 47.3962 171.963 47.3962 172.002 47.3587C172.349 47.0894 172.737 46.8595 173.125 46.7066C175.37 45.7082 177.887 45.6698 180.21 46.5517C181.179 46.9739 182.029 47.5876 182.688 48.3925C183.346 49.16 183.85 50.0815 184.12 51.0393C184.431 52.0752 184.585 53.1099 184.585 54.1843V67.1853C184.585 67.2997 184.47 67.4142 184.354 67.4142ZM119.613 48.0098C120.891 49.1215 121.899 50.5016 122.48 52.1136C123.292 54.1073 123.409 56.3308 122.788 58.442C122.788 58.5564 122.673 58.5949 122.596 58.5949H109.159C109.12 58.5949 109.12 58.5949 109.082 58.6334V58.7478C109.508 60.052 110.514 61.0878 111.792 61.585C111.83 61.585 111.83 61.6234 111.87 61.6234C113.265 62.1226 114.812 61.9697 116.051 61.1647L116.09 61.1263C116.207 61.0493 116.399 60.9713 116.555 60.9329C116.71 60.8944 116.864 60.9328 116.981 60.9713L122.092 62.392C122.13 62.392 122.169 62.392 122.169 62.4305C122.208 62.4305 122.246 62.5064 122.246 62.5448C122.246 62.5833 122.246 62.6592 122.208 62.6977C120.428 65.4204 117.446 67.1853 114.154 67.4142H113.458C113.108 67.4142 112.8 67.3767 112.489 67.3767C111.172 67.3382 109.896 67.0699 108.656 66.5718C107.341 66.0341 106.178 65.2676 105.209 64.3098C104.242 63.3498 103.468 62.1601 102.964 60.8944C102.422 59.5143 102.152 58.0572 102.152 56.6002C102.152 55.1431 102.422 53.6851 102.964 52.305C103.507 51.0382 104.281 49.8495 105.248 48.8917C106.217 47.9318 107.38 47.1653 108.656 46.6276C109.508 46.2834 110.437 46.0545 111.367 45.9381H111.522C114.232 45.4784 117.057 46.169 119.304 47.7789C119.42 47.8559 119.536 47.9318 119.613 48.0098ZM116.788 53.6081C116.749 53.5322 116.71 53.4552 116.71 53.3793C116.207 52.6118 115.51 52.0366 114.658 51.6903C113.535 51.2702 112.296 51.2702 111.172 51.6903C110.631 51.8838 110.166 52.1895 109.779 52.6118C109.624 52.7657 109.47 52.9945 109.315 53.1879L109.277 53.2639C109.197 53.3793 109.159 53.4937 109.12 53.6081H116.788ZM67.5487 59.6827C64.4229 67.8312 56.4775 73.5366 47.1934 73.5366C41.9518 73.5366 37.1449 71.7884 33.3838 68.6455L67.5487 59.6827ZM64.9048 39.4276C67.4668 43.0364 68.9704 47.3442 68.9704 52.0003C68.9704 52.2332 68.9704 52.4672 68.9589 52.5827L28.6241 63.2916C26.5902 60.0322 25.4153 56.1915 25.4153 52.0003C25.4153 51.3024 25.451 50.6046 25.5213 49.7892L64.9048 39.4276ZM27.5657 42.687C31.0916 35.4705 38.555 30.4639 47.1934 30.4639C51.7651 30.4639 56.0071 31.8617 59.5215 34.1902L27.5657 42.687Z" fill="#7E5D53"/>
</g>
<defs>
<clipPath id="clip0_3152_375">
<rect width="210" height="104" fill="white"/>
</clipPath>
</defs>
</svg>
