<svg width="250" height="37" viewBox="0 0 250 37" fill="none" xmlns="http://www.w3.org/2000/svg">
<g clip-path="url(#clip0_2803_147)">
<mask id="mask0_2803_147" style="mask-type:luminance" maskUnits="userSpaceOnUse" x="0" y="0" width="250" height="37">
<path d="M250 0H0V37.0001H250V0Z" fill="white"/>
</mask>
<g mask="url(#mask0_2803_147)">
<mask id="mask1_2803_147" style="mask-type:luminance" maskUnits="userSpaceOnUse" x="0" y="0" width="250" height="37">
<path d="M250 0H0V37.0001H250V0Z" fill="white"/>
</mask>
<g mask="url(#mask1_2803_147)">
<path fill-rule="evenodd" clip-rule="evenodd" d="M64.5553 5.6012C69.021 5.6012 72.6418 9.28646 72.6418 13.7349V13.7406C72.6418 18.1891 69.021 22.0415 64.5553 22.0415H60.9366V26.3888H56.4745V5.6012H64.5553ZM68.2149 13.7354C68.2149 11.5256 66.5685 9.65546 64.3498 9.65546H60.9366V17.9873H64.3498C66.5685 17.9873 68.2149 16.3635 68.2149 13.7401V13.7354ZM82.4103 10.645C86.8404 10.645 90.4371 14.2281 90.4371 18.6409C90.4371 23.0542 86.8404 26.6367 82.4103 26.6367C77.9797 26.6367 74.383 23.0542 74.383 18.6409C74.383 14.2281 77.9797 10.645 82.4103 10.645ZM82.4103 14.1227C80.157 14.1227 78.4708 16.147 78.4708 18.6409C78.4708 21.1348 80.157 23.1595 82.4103 23.1595C84.6631 23.1595 86.2748 21.1348 86.2748 18.6409C86.2748 16.147 84.6631 14.1227 82.4103 14.1227ZM104.494 25.5161C103.293 26.2279 101.892 26.6367 100.395 26.6367C95.9647 26.6367 92.368 23.0542 92.368 18.6409C92.368 14.2281 95.9647 10.645 100.395 10.645C101.885 10.645 103.281 11.0507 104.477 11.7568C104.973 12.0456 105.942 12.794 106.536 13.8035L103.874 16.3933C103.169 15.0369 101.909 14.1227 100.395 14.1227C98.142 14.1227 96.4825 16.147 96.4825 18.6409C96.4825 21.1348 98.142 23.1595 100.395 23.1595C101.909 23.1595 103.169 22.2449 103.874 20.8889L106.532 23.4745C105.938 24.4809 104.971 25.2262 104.477 25.5145L104.494 25.5161ZM112.668 17.3295L114.828 14.6259L118.466 10.9511H123.737L116.485 18.3557L124.352 26.3888H119.081L113.85 21.0472L113.011 21.7092L113.001 26.3888H109.081V5.6012H113.001V13.0037L112.668 17.3295ZM132.038 26.708C127.59 26.6226 124.011 23.0542 124.011 18.6409C124.011 14.2281 127.608 10.645 132.038 10.645C136.468 10.645 140.065 14.2281 140.065 18.6409C140.065 19.0875 140.028 19.5256 139.957 19.9523H127.979C128.488 21.8078 130.184 23.1595 132.092 23.2067C133.894 23.2036 135.39 22.7753 136.582 21.736L138.966 24.2C138.835 24.341 138.698 24.4746 138.557 24.6015C136.934 26.067 134.711 26.7106 132.038 26.708ZM136.046 17.3295C135.538 15.4745 133.879 14.0614 132.038 14.0614C130.197 14.0614 128.488 15.4745 127.979 17.3295H136.046ZM153.3 25.3174L152.754 25.6073C148.905 27.728 143.762 26.8757 143.551 21.736L143.519 20.7354V14.1201H140.986V10.9684H143.623L143.918 5.6012H147.326V10.9684H151.278V14.1201H147.326V21.0153H147.338C147.32 23.6957 149.466 23.3964 150.632 22.6605L153.3 25.3174Z" fill="#472D1F"/>
<path fill-rule="evenodd" clip-rule="evenodd" d="M22.9404 1.72388C28.9873 4.30721 33.1261 9.80666 33.1261 16.1556C33.1261 22.5071 28.9858 28.0065 22.939 30.5872C16.8935 28.0065 12.7518 22.5071 12.7518 16.1556C12.7518 9.80536 16.8936 4.30591 22.9404 1.72388Z" fill="#002FE2"/>
<path fill-rule="evenodd" clip-rule="evenodd" d="M22.9393 1.72342C25.0349 0.600743 27.4252 0.0012207 29.9534 0.0012207C38.7413 0.0012207 45.8753 7.23972 45.8753 16.1564C45.8753 25.0718 38.7413 32.3103 29.9534 32.3103C27.4252 32.3103 25.0349 31.7121 22.938 30.5881C28.2228 28.006 31.8434 22.5066 31.8434 16.1564C31.8434 9.80621 28.2241 4.30675 22.9393 1.72342Z" fill="#009CFF"/>
<path fill-rule="evenodd" clip-rule="evenodd" d="M22.9373 30.5861C20.8405 31.7101 18.4489 32.3096 15.922 32.3096H6.52528L2.29595 36.6009C1.91181 36.9907 1.3337 37.1072 0.830871 36.8961C0.328047 36.6851 6.10352e-05 36.1878 6.10352e-05 35.6349V2.08528C6.10352e-05 0.934113 0.920205 0.000488281 2.05475 0.000488281H15.973C18.4833 0.00825769 20.8571 0.6078 22.9385 1.72271C17.6525 4.30474 14.0319 9.8042 14.0319 16.1544C14.0319 22.5059 17.6525 28.0053 22.9373 30.5861Z" fill="#004EE7"/>
<path fill-rule="evenodd" clip-rule="evenodd" d="M181.384 13.8249C182.868 12.0203 184.57 11.3237 186.89 11.6015V13.8348C184.339 13.5859 181.384 15.5221 181.384 18.0851V26.8101H178.913V11.6015H181.384V13.8249ZM167.517 6.46222V6.46536C172.68 6.63257 175.291 13.262 170.67 16.0598C170.91 16.1448 171.197 16.2622 171.553 16.4252C177.531 18.8551 175.218 26.7597 168.792 26.8095C168.771 26.8101 168.75 26.8101 168.73 26.8101H158.669V6.46222H167.517ZM161.14 15.5446H167.24C168.484 15.3847 169.48 14.9864 170.085 14.3537C172.038 12.3101 170.816 8.64476 167.318 8.64476H161.14V15.5446ZM161.14 24.6275H168.792C172.289 24.6275 173.45 20.9616 171.496 18.918C170.689 18.0747 169.284 17.7271 167.423 17.7271H161.14V24.6275ZM225.349 19.9846C225.858 22.8072 228.207 24.9436 231.024 24.9436C232.695 24.9436 234.201 24.1925 235.256 22.9927L237.032 24.3188C235.542 25.9379 233.401 26.9537 231.024 26.9537C226.526 26.9537 222.874 23.3161 222.874 18.8362C222.874 14.3558 226.28 10.7183 230.777 10.7183C235.275 10.7183 238.611 14.3558 238.611 18.8362C238.611 19.2257 238.584 19.6093 238.53 19.9846H225.349ZM236.162 17.7722C235.74 14.9078 233.623 12.7284 230.777 12.7284C227.932 12.7284 225.761 14.9078 225.326 17.7722H236.162ZM244.494 13.8249C245.978 12.0203 247.681 11.3237 250 11.6015V13.8348C247.449 13.5859 244.494 15.5221 244.494 18.0851V26.8101H242.024V11.6015H244.494V13.8249ZM210.32 19.6623L218.932 11.6025H222.547L215.464 18.2324L222.195 26.8101H219.141L213.702 19.8803L210.32 23.0462V26.8101H207.85V5.35522H210.32V19.6623ZM196.523 10.7183C201.021 10.7183 204.673 14.3558 204.673 18.8362C204.673 23.3161 201.021 26.9537 196.523 26.9537C192.025 26.9537 188.374 23.3161 188.374 18.8362C188.374 14.3558 192.025 10.7183 196.523 10.7183ZM196.523 12.7284C193.335 12.7284 190.746 15.4649 190.746 18.8362C190.746 22.207 193.335 24.9436 196.523 24.9436C199.712 24.9436 202.301 22.207 202.301 18.8362C202.301 15.4649 199.712 12.7284 196.523 12.7284Z" fill="#472D1F"/>
</g>
</g>
</g>
<defs>
<clipPath id="clip0_2803_147">
<rect width="250" height="37" fill="white"/>
</clipPath>
</defs>
</svg>
