<svg width="210" height="104" viewBox="0 0 210 104" fill="none" xmlns="http://www.w3.org/2000/svg">
<g clip-path="url(#clip0_3152_206)">
<path d="M76.8372 44.0236V57.1653H74.5287V54.9048C73.4366 56.5834 71.5283 57.5734 69.5136 57.507C65.8126 57.453 62.7977 54.4225 62.7977 50.7562C62.7977 50.7022 62.7984 50.6481 62.7997 50.5948C62.7984 50.5407 62.7977 50.4867 62.7977 50.4327C62.7977 46.767 65.8126 43.7365 69.5136 43.6819C71.5283 43.6155 73.4366 44.6054 74.5287 46.284V44.0236H76.8372ZM74.5287 50.5948C74.5071 48.0499 72.3878 45.9684 69.8185 45.9684C67.2346 45.9684 65.1082 48.0746 65.1082 50.6338C65.1082 53.1885 67.2261 55.2921 69.8053 55.2993C69.8336 55.2999 69.8612 55.2999 69.8888 55.2999C72.4351 55.2999 74.5301 53.2249 74.5301 50.7035C74.5301 50.667 74.5294 50.6306 74.5287 50.5948Z" fill="#7E5D53"/>
<path d="M91.524 44.0234L86.1112 57.9801C84.9967 60.924 82.9268 62.6058 80.2201 62.4223V60.2933C81.9976 60.4248 83.1121 59.3469 83.8021 57.6124L84.0413 57.1131L78.2566 44.0234H80.7241L85.2353 54.3267L89.0565 44.0234H91.524Z" fill="#7E5D53"/>
<path d="M114.7 55.3519C116.224 55.4248 117.679 54.6938 118.521 53.4331L120.484 54.537C119.197 56.4662 116.98 57.5941 114.647 57.5069C110.374 57.5069 107.535 54.537 107.535 50.5946C107.532 50.5146 107.53 50.4345 107.53 50.3538C107.53 46.692 110.573 43.6785 114.27 43.6785C114.343 43.6785 114.415 43.6798 114.487 43.6817C118.494 43.6817 121.095 46.9413 121.095 50.6207C121.095 50.9637 121.068 51.3067 121.015 51.6458H109.897C110.348 54.0117 112.232 55.3519 114.7 55.3519ZM109.897 49.6483H118.76C118.574 47.4731 116.691 45.7932 114.487 45.8374C112.199 45.7229 110.183 47.3963 109.897 49.6483Z" fill="#7E5D53"/>
<path d="M136.583 38.7671V57.1653H134.275V54.9048C133.182 56.5834 131.274 57.5734 129.259 57.507C125.558 57.453 122.544 54.4225 122.544 50.7562C122.544 50.7021 122.544 50.6481 122.546 50.5947C122.544 50.5407 122.544 50.4867 122.544 50.4327C122.544 46.767 125.558 43.7365 129.259 43.6818C131.274 43.6154 133.182 44.6054 134.275 46.284V38.7671H136.583ZM134.275 50.5947C134.253 48.0498 132.133 45.9683 129.564 45.9683C126.98 45.9683 124.854 48.0746 124.854 50.6338C124.854 53.1885 126.972 55.2921 129.551 55.2992C129.579 55.2999 129.607 55.2999 129.635 55.2999C132.18 55.2999 134.276 53.2249 134.276 50.7034C134.276 50.667 134.275 50.6305 134.275 50.5947Z" fill="#7E5D53"/>
<path d="M146.063 55.3519C147.588 55.4248 149.043 54.6938 149.885 53.4331L151.849 54.537C150.561 56.4662 148.344 57.5941 146.01 57.5069C141.738 57.5069 138.899 54.537 138.899 50.5946C138.896 50.5146 138.894 50.4339 138.894 50.3538C138.894 46.692 141.937 43.6785 145.634 43.6785C145.707 43.6785 145.779 43.6798 145.851 43.6817C149.858 43.6817 152.459 46.9413 152.459 50.6207C152.459 50.9637 152.432 51.3067 152.379 51.6458H141.261C141.711 54.0117 143.596 55.3519 146.063 55.3519ZM141.261 49.6483H150.124C149.938 47.4731 148.055 45.7932 145.851 45.8374C143.563 45.7229 141.547 47.3963 141.261 49.6483Z" fill="#7E5D53"/>
<path d="M161.074 55.3519C162.599 55.4248 164.054 54.6938 164.895 53.4331L166.86 54.537C165.572 56.4662 163.354 57.5941 161.021 57.5069C156.749 57.5069 153.91 54.537 153.91 50.5946C153.906 50.5146 153.905 50.4339 153.905 50.3538C153.905 46.692 156.947 43.6785 160.645 43.6785C160.717 43.6785 160.79 43.6798 160.862 43.6817C164.869 43.6817 167.469 46.9413 167.469 50.6207C167.469 50.9637 167.442 51.3067 167.39 51.6458H156.271C156.722 54.0117 158.606 55.3519 161.074 55.3519ZM156.271 49.6483H165.135C164.949 47.4731 163.065 45.7932 160.862 45.8374C158.573 45.7229 156.558 47.3963 156.271 49.6483Z" fill="#7E5D53"/>
<path d="M188.992 48.991V57.1653H186.684V49.0704C186.684 46.9934 185.515 45.8635 183.765 45.8635C181.907 45.8635 180.501 47.0201 180.501 49.8586V57.1653H178.192V49.0704C178.192 46.9934 177.104 45.8635 175.379 45.8635C173.601 45.8635 171.982 47.0201 171.982 49.8586V57.1653H169.673V44.0235H171.982V45.7848C172.818 44.4283 174.334 43.6226 175.936 43.6818C177.563 43.6082 179.09 44.483 179.837 45.9162C180.716 44.483 182.312 43.6278 184.003 43.6818C186.949 43.6818 188.992 45.706 188.992 48.991Z" fill="#7E5D53"/>
<path d="M102.385 49.8058C104.684 49.0137 106.233 46.8541 106.233 44.4439C106.233 41.3295 103.645 38.7664 100.501 38.7664C100.483 38.7664 100.466 38.7664 100.448 38.767H93.0176V57.1652H95.4858V41.0535H100.448C102.292 41.1323 103.765 42.656 103.765 44.4836C103.765 46.3113 102.292 47.835 100.448 47.9137H96.9722V50.1215H99.8642L104.03 57.1652H106.763L102.385 49.8058Z" fill="#7E5D53"/>
<path d="M56.0287 38.7671H49.2885V57.1653H51.756V41.0536H56.0287C56.0484 41.0536 56.0681 41.053 56.0871 41.053C58.0079 41.053 59.5883 42.6183 59.5883 44.5208C59.5883 44.5742 59.587 44.6275 59.5844 44.6809C59.5863 44.7291 59.5876 44.7772 59.5876 44.8254C59.5876 46.7357 58 48.3082 56.0714 48.3082C56.0569 48.3082 56.0431 48.3082 56.0287 48.3076H53.2431V50.5947H56.0287C56.0714 50.5954 56.1141 50.596 56.1568 50.596C59.3767 50.596 62.0269 47.9711 62.0269 44.7812C62.0269 44.748 62.0262 44.7141 62.0262 44.6809C62.0269 44.6419 62.0269 44.6028 62.0269 44.5638C62.0269 41.3829 59.3846 38.7651 56.1726 38.7651C56.1246 38.7651 56.0766 38.7658 56.0287 38.7671Z" fill="#7E5D53"/>
<path d="M39.9744 57.2166V69.5167L52.3928 81.8163V69.5167L39.9744 57.2166Z" fill="#7E5D53"/>
<path d="M32.8058 52.0176L21.3475 63.3668V75.667L39.0144 58.1677L32.8058 52.0176Z" fill="#7E5D53"/>
<path d="M21.3475 26.4668L39.9744 44.9164V57.2166L21.3475 38.767V26.4668Z" fill="#7E5D53"/>
</g>
<defs>
<clipPath id="clip0_3152_206">
<rect width="210" height="104" fill="white"/>
</clipPath>
</defs>
</svg>
