<svg width="210" height="104" viewBox="0 0 210 104" fill="none" xmlns="http://www.w3.org/2000/svg">
<g clip-path="url(#clip0_3152_293)">
<path fill-rule="evenodd" clip-rule="evenodd" d="M172.677 46.676C172.559 46.7141 172.519 46.8308 172.48 46.9869C172.48 47.181 172.519 47.2967 172.598 47.3742L173.5 47.531C173.775 47.5684 173.932 47.6467 174.049 47.7242C174.167 47.8027 174.207 47.8803 174.207 47.9969C174.207 48.1911 174.128 48.502 173.932 49.006C173.737 49.5128 173.5 50.1327 173.186 50.8731L172.207 53.1647C171.932 53.7483 171.695 54.2533 171.5 54.6406C171.304 55.0692 171.186 55.2644 171.146 55.2644C171.107 55.2644 171.029 55.1073 170.911 54.8348C170.793 54.5631 170.676 54.2924 170.558 53.9816C170.44 53.6697 170.362 53.4354 170.284 53.2432L169.38 50.6004C169.303 50.4062 169.185 50.1327 169.067 49.7443C168.95 49.3951 168.831 49.006 168.713 48.6578C168.596 48.3078 168.558 48.0361 168.558 47.8803C168.558 47.8027 168.596 47.7242 168.675 47.6861C168.792 47.6467 168.95 47.5684 169.185 47.531L169.891 47.3742C170.009 47.2967 170.047 47.18 170.009 46.9869C170.009 46.8308 169.93 46.7141 169.812 46.676C169.38 46.7141 168.95 46.7141 168.519 46.7535H165.929C165.496 46.7141 165.026 46.7141 164.556 46.676C164.437 46.7141 164.359 46.8308 164.359 46.9869C164.32 47.18 164.359 47.2967 164.437 47.3742L165.183 47.531C165.693 47.6467 166.046 47.8803 166.242 48.2292C166.439 48.5792 166.672 49.0842 166.87 49.7443L169.185 55.9242C169.38 56.4282 169.499 56.8166 169.577 57.0901C169.616 57.3618 169.657 57.6345 169.657 57.9049C169.657 58.0991 169.616 58.3317 169.539 58.566C169.499 58.8377 169.419 59.0317 169.38 59.1486C169.262 59.4965 169.029 59.9645 168.753 60.4693C168.478 61.0518 168.127 61.6745 167.693 62.3356C167.577 62.4904 167.458 62.606 167.3 62.7237C167.146 62.8013 166.948 62.8396 166.713 62.8396H166.165C165.85 62.8396 165.574 62.9573 165.339 63.1515C165.145 63.3465 165.026 63.6555 164.986 64.0065C164.986 64.3555 165.105 64.6684 165.339 64.8989C165.574 65.0931 165.889 65.2118 166.282 65.2118C166.634 65.2479 166.948 65.1714 167.262 64.9772C167.614 64.783 167.889 64.3949 168.164 63.8505C168.519 63.073 168.95 62.2187 169.38 61.247C169.812 60.3155 170.284 59.3819 170.716 58.411C171.147 57.4393 171.578 56.5438 171.97 55.729C172.362 54.9525 172.677 54.2924 172.911 53.7864L174.52 50.5229C175.031 49.5128 175.421 48.7734 175.775 48.3078C176.129 47.8408 176.559 47.5684 176.992 47.4525L177.502 47.3742C177.62 47.2575 177.659 47.1437 177.659 46.9869C177.62 46.8308 177.541 46.7141 177.424 46.676C177.031 46.7141 176.678 46.7141 176.324 46.7535H174.011C173.579 46.7141 173.146 46.7141 172.677 46.676Z" fill="#7E5D53"/>
<path fill-rule="evenodd" clip-rule="evenodd" d="M81.8171 46.4417C81.3064 46.3641 80.9143 46.3258 80.5618 46.3258C78.9531 46.3641 77.6194 46.676 76.5986 47.2967C75.5788 47.9575 74.7957 48.7353 74.285 49.706C73.8136 50.6779 73.5791 51.689 73.5791 52.7372C73.5791 53.6697 73.7343 54.4856 74.0097 55.1859C74.3235 55.9242 74.7166 56.5439 75.2255 57.0108C75.7354 57.5158 76.3631 57.8658 77.0302 58.0991C77.6987 58.3719 78.4432 58.4885 79.2282 58.4885C79.7768 58.4885 80.3657 58.411 80.9934 58.2168C81.5805 58.0219 82.1697 57.6716 82.7586 57.2441C83.3073 56.8176 83.7389 56.234 84.0527 55.5358C84.0132 55.4192 83.9745 55.3025 83.8567 55.2644C83.7784 55.1457 83.6606 55.1073 83.5033 55.1457C83.1905 55.6507 82.7984 56.0399 82.2864 56.3891C81.7776 56.702 81.1489 56.8557 80.3252 56.8557C79.2679 56.8557 78.4044 56.5833 77.6987 56.0782C77.0302 55.5753 76.5204 54.9525 76.167 54.2139C75.8144 53.4755 75.6165 52.697 75.6165 51.9594C75.6571 50.9112 75.8542 50.0562 76.2065 49.357C76.5986 48.6972 77.1095 48.1911 77.6987 47.8409C78.2856 47.4919 78.9531 47.3369 79.6203 47.3369C80.2084 47.3369 80.7966 47.4919 81.3064 47.8027C81.8171 48.0745 82.2082 48.4244 82.5231 48.8118C82.6003 48.8893 82.6796 48.9676 82.7586 49.006H82.9536C83.1507 49.006 83.2675 48.8893 83.3845 48.6972C83.5033 48.502 83.5824 48.2292 83.5824 47.9575C83.5824 47.7242 83.5428 47.4919 83.4646 47.2967C83.3845 47.1025 83.2675 46.9477 83.1112 46.8308C82.7181 46.676 82.2864 46.5594 81.8171 46.4417Z" fill="#7E5D53"/>
<path fill-rule="evenodd" clip-rule="evenodd" d="M70.2821 48.1911C70.3999 48.4626 70.4781 48.7353 70.4781 49.006C70.4781 49.2012 70.4397 49.3178 70.3999 49.3951C70.3614 49.5128 70.3216 49.5501 70.2821 49.5893C70.2049 49.6678 69.9693 49.7059 69.5366 49.7443C69.0652 49.7835 68.3198 49.8239 67.2615 49.8239H65.2219C65.1042 49.8239 65.0657 49.8239 65.0249 49.7835C64.9853 49.7443 64.9853 49.7443 64.9853 49.706C65.0248 49.357 65.1824 49.006 65.4565 48.6578C65.7714 48.2676 66.1635 47.9184 66.6723 47.6467C67.105 47.3742 67.6546 47.2202 68.2425 47.2202C68.8317 47.2202 69.2623 47.3369 69.5761 47.531C69.9298 47.6861 70.1653 47.9184 70.2821 48.1911ZM72.6365 50.2514C72.675 50.1327 72.675 49.9395 72.675 49.7443C72.675 49.1628 72.5187 48.6186 72.1651 48.1136C71.8128 47.6075 71.3414 47.181 70.7535 46.8308C70.1266 46.5189 69.3801 46.3641 68.5168 46.3258C67.3803 46.3641 66.399 46.676 65.4963 47.2575C64.5932 47.8409 63.926 48.6186 63.4567 49.5893C62.9856 50.5623 62.7508 51.6486 62.7508 52.8538C62.7508 53.4755 62.828 54.1377 63.0251 54.7965C63.2211 55.4192 63.4954 55.9997 63.926 56.5833C64.3577 57.1264 64.9081 57.5941 65.6525 57.9444C66.399 58.2933 67.222 58.4483 68.1635 58.4885C68.6742 58.4885 69.1851 58.411 69.7722 58.2168C70.3614 58.0219 70.9493 57.7502 71.4602 57.3618C71.968 56.9333 72.3622 56.4282 72.7148 55.8075C72.675 55.6888 72.6365 55.5753 72.5583 55.4946C72.4789 55.4565 72.3622 55.4192 72.1651 55.4565C71.7345 56.0399 71.3029 56.3891 70.8305 56.5833C70.4397 56.7782 70.0078 56.8951 69.5366 56.8557C68.4773 56.8557 67.5753 56.6234 66.8694 56.1184C66.1635 55.6507 65.614 54.9906 65.2607 54.1758C64.9081 53.3589 64.7121 52.4644 64.7121 51.4938C64.6725 51.1438 64.7121 50.9112 64.8298 50.7946C64.9081 50.717 65.1042 50.6779 65.4565 50.717H70.8305C71.4207 50.717 71.8502 50.717 72.1266 50.6779C72.4009 50.6395 72.5187 50.6004 72.5583 50.5229C72.5967 50.4456 72.5967 50.3671 72.6365 50.2514Z" fill="#7E5D53"/>
<path fill-rule="evenodd" clip-rule="evenodd" d="M84.8765 47.6861C84.9149 47.8027 84.9547 47.8803 85.0338 47.9575H85.819C86.0933 47.9184 86.2894 47.9969 86.3674 48.1136C86.4061 48.1911 86.4446 48.4244 86.4446 48.7734V55.38C86.4061 55.9634 86.4862 56.5068 86.6407 56.9333C86.8378 57.3999 87.1131 57.7883 87.5437 58.06C88.0159 58.3335 88.6425 58.4483 89.4267 58.4885C90.212 58.4483 90.8386 58.2933 91.3495 58.0219C91.8592 57.7502 92.2523 57.4785 92.4879 57.1264C92.5277 57.0509 92.5277 56.9714 92.4494 56.8557C92.4099 56.738 92.3306 56.6615 92.2128 56.6615C92.173 56.6615 92.0552 56.738 91.8989 56.8557C91.7812 56.9333 91.6246 57.0108 91.4673 57.0509C91.3495 57.0901 91.2702 57.1676 91.1535 57.205C90.9969 57.2441 90.8386 57.2441 90.7226 57.2441C90.095 57.205 89.6238 57.0509 89.31 56.738C88.9972 56.4674 88.799 56.0782 88.7218 55.5752C88.604 55.1073 88.5645 54.6023 88.5645 54.0189V48.6578C88.5645 48.3861 88.604 48.1911 88.6823 48.0744C88.7218 47.9575 88.8784 47.9184 89.1524 47.9575H92.3701C92.5277 47.8409 92.6059 47.6467 92.6059 47.3742C92.6444 47.1025 92.5661 46.8692 92.3701 46.7535H89.1524C88.9168 46.7535 88.7613 46.7141 88.7218 46.676C88.6823 46.6358 88.6425 46.4818 88.6425 46.2091V44.9276C88.5645 44.8109 88.4465 44.7705 88.3297 44.7705C88.1724 44.7334 88.0546 44.7334 88.0159 44.7705C87.8586 45.0813 87.6625 45.3932 87.4277 45.7033C87.1911 46.0533 86.9961 46.2866 86.7993 46.4416C86.6407 46.5985 86.4061 46.7535 86.0546 46.9093C85.7387 47.1025 85.3874 47.2202 84.9547 47.3369C84.9149 47.4525 84.8765 47.5684 84.8765 47.6861Z" fill="#7E5D53"/>
<path fill-rule="evenodd" clip-rule="evenodd" d="M49.3337 46.1706C49.3337 46.0921 49.294 46.0156 49.2544 45.9754C49.2149 45.9362 49.1762 45.9362 49.0979 45.9362C48.8623 46.0921 48.5475 46.2471 48.1564 46.4413C47.803 46.6355 47.4109 46.7913 47.0576 46.9473C46.705 47.1433 46.3911 47.2572 46.1941 47.3365C46.0763 47.3738 46.0378 47.4915 46.0378 47.6072C46.0378 47.7238 46.0763 47.8024 46.1161 47.8405L46.3912 48.0741C46.6655 48.1907 46.822 48.3465 46.9387 48.4622C47.0576 48.6182 47.1366 48.8114 47.1366 49.0056C47.1754 49.2008 47.1754 49.4722 47.1366 49.8235V54.8757C47.1754 55.5355 47.1754 56.0395 47.1366 56.3887C47.0971 56.7377 46.9803 56.971 46.822 57.0897C46.6655 57.2046 46.4299 57.3212 46.1161 57.3614L45.5279 57.4389C45.4101 57.5154 45.3703 57.6341 45.4101 57.8273C45.4486 57.9831 45.4884 58.0988 45.5664 58.1763C45.921 58.1382 46.3516 58.0987 46.822 58.0596H49.7654C50.2355 58.0987 50.8236 58.1382 51.49 58.1763C51.6078 58.0988 51.6473 57.9831 51.6473 57.8273C51.6869 57.6341 51.6473 57.5154 51.5306 57.4389L50.4713 57.3614C50.1177 57.3212 49.8436 57.2437 49.7256 57.126C49.5298 57.0104 49.4117 56.7377 49.3733 56.3887C49.3337 56.0395 49.3337 55.5355 49.3337 54.8757V50.9492C49.3337 50.4452 49.3733 50.0167 49.4117 49.6283C49.49 49.2008 49.6068 48.9291 49.7256 48.7349C49.8436 48.5397 49.9604 48.4241 50.1575 48.3074C50.3137 48.1907 50.5098 48.1513 50.7454 48.1513C50.9414 48.1513 51.1772 48.1907 51.3741 48.2672C51.5691 48.3465 51.8049 48.4622 52.0394 48.6182C52.1593 48.6574 52.2365 48.7349 52.3148 48.773C52.3928 48.8114 52.5106 48.8114 52.6682 48.8114C52.9425 48.8114 53.2165 48.7349 53.4919 48.5397C53.7264 48.3074 53.883 47.9571 53.9235 47.5307C53.9235 47.1433 53.8057 46.8698 53.5304 46.6756C53.2958 46.4814 52.981 46.3638 52.6286 46.3254C52.0779 46.3638 51.5306 46.5185 51.0186 46.8698C50.4713 47.2198 49.9206 47.6463 49.4117 48.0741C49.3733 48.0357 49.3337 47.918 49.3337 47.8024V46.1706Z" fill="#7E5D53"/>
<path fill-rule="evenodd" clip-rule="evenodd" d="M42.3498 48.1911C42.5063 48.4626 42.5469 48.7353 42.5063 49.006C42.5063 49.2012 42.5063 49.3178 42.4668 49.3951C42.4291 49.5128 42.3895 49.5501 42.3498 49.5893C42.2718 49.6678 41.9974 49.7059 41.5658 49.7443C41.1332 49.7835 40.3885 49.8239 39.3292 49.8239H37.2886C37.1708 49.8239 37.1323 49.8239 37.0936 49.7835C37.053 49.7443 37.053 49.7443 37.053 49.706C37.0936 49.357 37.2491 49.006 37.5255 48.6578C37.8382 48.2676 38.2311 47.9184 38.741 47.6467C39.1719 47.3742 39.7223 47.2202 40.3094 47.2202C40.8984 47.2202 41.33 47.3369 41.6438 47.531C41.9974 47.6861 42.233 47.9184 42.3498 48.1911ZM44.7042 50.2514C44.7427 50.1327 44.7427 49.9395 44.7427 49.7443C44.7427 49.1628 44.5864 48.6186 44.2328 48.1136C43.8805 47.6075 43.4093 47.181 42.8201 46.8308C42.1945 46.5189 41.447 46.3641 40.6243 46.3258C39.4867 46.3641 38.467 46.676 37.5639 47.2575C36.7007 47.8409 36.0343 48.6186 35.5233 49.5893C35.0522 50.5623 34.8177 51.6486 34.8177 52.8538C34.8177 53.4755 34.8967 54.1377 35.0917 54.7965C35.2888 55.4192 35.5631 55.9997 35.9937 56.5833C36.4264 57.1264 36.9758 57.5941 37.6807 57.9444C38.4272 58.2933 39.2907 58.4483 40.2312 58.4885C40.741 58.4885 41.252 58.411 41.8388 58.2168C42.4291 58.0219 43.0172 57.7502 43.5261 57.3618C44.036 56.9333 44.4288 56.4282 44.7825 55.8075C44.7427 55.6888 44.7042 55.5753 44.6259 55.4946C44.5081 55.4565 44.3904 55.4192 44.2328 55.4565C43.8012 56.0399 43.3695 56.3891 42.8984 56.5833C42.5063 56.7782 42.0757 56.8951 41.5658 56.8557C40.5063 56.8557 39.642 56.6234 38.9371 56.1184C38.2311 55.6507 37.6807 54.9906 37.3284 54.1758C36.9758 53.3589 36.7797 52.4644 36.7797 51.4938C36.7402 51.1438 36.7797 50.9112 36.8967 50.7946C36.9758 50.717 37.1708 50.6779 37.5255 50.717H42.8984C43.4873 50.717 43.92 50.717 44.1933 50.6779C44.4686 50.6395 44.5864 50.6004 44.6259 50.5229C44.6647 50.4456 44.6647 50.3671 44.7042 50.2514Z" fill="#7E5D53"/>
<path fill-rule="evenodd" clip-rule="evenodd" d="M64.8686 38.01C64.3199 37.6981 63.6527 37.5443 62.8675 37.5443C61.8875 37.5825 61.0638 37.7766 60.3955 38.1259C59.7291 38.4759 59.1402 38.9428 58.6698 39.5251C58.2392 40.0685 57.8856 40.6137 57.6511 41.1568C57.2977 41.9727 57.0619 42.8277 56.9431 43.683C56.7878 44.538 56.7085 45.3931 56.7085 46.2473C56.7085 46.364 56.669 46.4817 56.5907 46.5984C56.5114 46.6759 56.4332 46.7534 56.3154 46.7915L55.0611 47.4132C55.0226 47.4918 54.9818 47.6074 55.0226 47.7241C55.0226 47.8026 55.0611 47.8801 55.1404 47.9574H56.1602C56.4332 47.9182 56.6292 47.9968 56.669 48.1135C56.7481 48.191 56.748 48.4243 56.7085 48.7733V54.8759C56.748 55.5357 56.7481 56.0397 56.669 56.3889C56.6292 56.7379 56.552 56.9712 56.3947 57.09C56.2382 57.244 56.0015 57.3215 55.6503 57.3617L54.9818 57.4392C54.865 57.5157 54.8255 57.6344 54.8255 57.8275C54.865 57.9834 54.9038 58.099 55.0226 58.1765C55.4532 58.1384 55.8848 58.099 56.3154 58.0598H59.2985C59.7686 58.099 60.3173 58.1384 60.9855 58.1765C61.0638 58.099 61.1023 57.9834 61.142 57.8275C61.1805 57.6344 61.142 57.5157 61.0243 57.4392L60.0045 57.3617C59.6509 57.3215 59.3758 57.244 59.2192 57.1263C59.1004 57.0106 58.9847 56.7379 58.9452 56.3889C58.9044 56.0397 58.9044 55.5357 58.9044 54.8759V48.7733C58.9044 48.4243 58.9044 48.191 58.9452 48.1135C58.9847 47.9968 59.1402 47.9182 59.4153 47.9574H62.4757C62.5924 47.9182 62.7112 47.8026 62.7895 47.6859C62.828 47.4918 62.8675 47.3367 62.8675 47.1809C62.8675 46.9867 62.828 46.8701 62.7112 46.7534H59.4153C59.1402 46.7915 58.9847 46.7534 58.9452 46.6357C58.9044 46.5188 58.9044 46.2865 58.9044 45.9365V45.0812C58.9044 44.6156 58.9044 44.0714 58.9452 43.4878C58.9847 42.9053 59.0232 42.3611 59.1402 41.8169C59.258 41.2354 59.3758 40.7303 59.5331 40.2634C59.7291 39.7594 60.043 39.3703 60.3955 39.0986C60.7499 38.8258 61.142 38.67 61.5747 38.67C62.0835 38.67 62.5152 38.7877 62.9073 39.0584C63.2994 39.3319 63.6132 39.6036 63.8873 39.9536C64.0061 40.0685 64.1221 40.1478 64.2409 40.1862C64.3199 40.2253 64.4369 40.2634 64.5932 40.2634C64.9081 40.2634 65.1824 40.1862 65.3795 39.991C65.5745 39.7957 65.6923 39.5251 65.7318 39.2536C65.6923 38.7486 65.4169 38.32 64.8686 38.01Z" fill="#7E5D53"/>
<path fill-rule="evenodd" clip-rule="evenodd" d="M143.449 45.9754C143.371 45.9362 143.291 45.9362 143.252 45.9362C143.057 46.0921 142.781 46.2471 142.43 46.4413C141.787 46.731 141.003 47.1163 140.349 47.3365C140.272 47.3738 140.231 47.4915 140.231 47.6072C140.231 47.7238 140.272 47.8024 140.31 47.8405L140.585 47.9965C140.821 48.1907 141.016 48.3465 141.134 48.4622C141.252 48.6182 141.262 48.6806 141.304 48.8748C141.341 49.0689 141.332 49.4712 141.332 49.8235V54.8757C141.37 55.5355 141.332 56.0395 141.291 56.3887C141.252 56.7377 141.174 56.971 141.016 57.0897C140.858 57.2437 140.624 57.3212 140.272 57.3614L139.643 57.4389C139.565 57.5154 139.525 57.6341 139.565 57.8273C139.565 57.9831 139.604 58.0988 139.722 58.1763C140.114 58.1382 140.546 58.0987 141.016 58.0596H143.84C144.273 58.0987 144.705 58.1382 145.057 58.1763C145.175 58.0988 145.214 57.9831 145.255 57.8273C145.255 57.6341 145.214 57.5154 145.136 57.4389L144.626 57.3614C144.273 57.3212 143.998 57.2046 143.84 57.0897C143.723 56.971 143.605 56.7377 143.567 56.3887C143.528 56.0395 143.528 55.5355 143.528 54.8757V50.4833C143.528 49.8215 143.541 49.2963 143.92 48.7349C144.116 48.4622 144.468 48.1907 144.94 47.9965C145.369 47.8024 145.842 47.7238 146.431 47.7238C147.412 47.7622 148.078 48.0357 148.509 48.5397C148.943 49.0447 149.138 49.7439 149.138 50.5619V54.8757C149.138 55.5355 149.138 56.0395 149.099 56.3887C149.058 56.7377 148.943 56.971 148.824 57.0897C148.628 57.2046 148.393 57.3212 148.04 57.3614L147.489 57.4389C147.412 57.5154 147.372 57.6341 147.372 57.8273C147.412 57.9831 147.452 58.0988 147.567 58.1763C147.923 58.1382 148.354 58.0987 148.824 58.0596H151.649C152.08 58.0987 152.55 58.1382 152.981 58.1763C153.059 58.0988 153.139 57.9831 153.178 57.8273C153.178 57.6341 153.139 57.5154 153.021 57.4389L152.394 57.3614C152.041 57.3212 151.805 57.2437 151.609 57.0897C151.491 56.971 151.374 56.7377 151.335 56.3887C151.294 56.0395 151.294 55.5355 151.294 54.8757V49.9008C151.294 49.2399 151.177 48.6574 150.943 48.1513C150.706 47.6072 150.354 47.1807 149.845 46.8304C149.334 46.5185 148.705 46.3638 147.882 46.3254C147.136 46.3638 146.431 46.5185 145.764 46.7913C145.095 47.064 144.43 47.413 143.802 47.8024C143.723 47.8024 143.644 47.7622 143.605 47.7238C143.567 47.6857 143.528 47.6072 143.528 47.5307V46.9473C143.528 46.7531 143.528 46.4814 143.567 46.1706C143.528 46.0529 143.488 46.0156 143.449 45.9754Z" fill="#7E5D53"/>
<path fill-rule="evenodd" clip-rule="evenodd" d="M135.093 48.1136C135.643 48.6578 136.034 49.357 136.309 50.212C136.583 51.0663 136.702 51.9213 136.662 52.7372C136.702 53.5149 136.583 54.2533 136.35 54.9906C136.152 55.729 135.799 56.3497 135.328 56.8557C134.817 57.3618 134.152 57.5941 133.328 57.5941C132.464 57.5941 131.758 57.3216 131.247 56.8166C130.659 56.2724 130.267 55.6134 129.993 54.7965C129.718 53.9425 129.561 53.0872 129.561 52.194C129.6 50.6004 129.914 49.357 130.542 48.5401C131.131 47.6467 131.955 47.2202 132.935 47.2202C133.837 47.2202 134.582 47.531 135.093 48.1136ZM138.389 55.4946C138.899 54.5631 139.133 53.4755 139.173 52.2723C139.133 51.1054 138.858 50.0562 138.348 49.1628C137.839 48.2676 137.132 47.5684 136.23 47.0634C135.328 46.5985 134.348 46.3641 133.288 46.3258C132.112 46.3641 131.052 46.6358 130.148 47.1437C129.209 47.6467 128.463 48.3861 127.912 49.3178C127.364 50.2514 127.09 51.3377 127.09 52.5814C127.09 53.7874 127.364 54.8348 127.912 55.729C128.423 56.5833 129.091 57.2441 129.993 57.7502C130.895 58.2168 131.915 58.4483 133.015 58.4885C134.23 58.4483 135.328 58.2168 136.23 57.711C137.172 57.1676 137.88 56.4282 138.389 55.4946Z" fill="#7E5D53"/>
<path fill-rule="evenodd" clip-rule="evenodd" d="M156.082 49.8239C156.003 49.8239 155.964 49.8239 155.924 49.7835C155.885 49.7443 155.885 49.7443 155.885 49.706C155.924 49.357 156.082 49.006 156.354 48.6578C156.67 48.2676 157.062 47.9184 157.534 47.6467C158.003 47.3742 158.553 47.2202 159.141 47.2202C159.69 47.2202 160.122 47.3369 160.436 47.531C160.79 47.6861 161.024 47.9184 161.182 48.1911C161.299 48.4626 161.377 48.7353 161.339 49.006C161.339 49.2012 161.339 49.3178 161.299 49.3951C161.261 49.5128 161.221 49.5501 161.182 49.5893C161.102 49.6678 160.829 49.7059 160.396 49.7443C159.966 49.7835 159.181 49.8239 158.121 49.8239H156.082ZM155.689 50.7946C155.808 50.717 156.003 50.6779 156.354 50.717H161.731C162.321 50.717 162.752 50.717 163.025 50.6779C163.553 50.5914 163.576 50.2494 163.576 49.7443C163.576 49.1628 163.378 48.6186 163.025 48.1136C162.711 47.6075 162.242 47.181 161.653 46.8308C161.024 46.5189 160.278 46.3641 159.416 46.3258C158.279 46.3641 157.299 46.676 156.396 47.2575C155.493 47.8409 154.826 48.6186 154.356 49.5893C153.846 50.5623 153.61 51.6486 153.61 52.8538C153.61 53.4755 153.726 54.1377 153.925 54.7965C154.08 55.4192 154.394 55.9997 154.826 56.5833C155.258 57.1264 155.808 57.5941 156.513 57.9444C157.257 58.2933 158.084 58.4483 159.024 58.4885C159.533 58.4885 160.083 58.411 160.672 58.2168C161.261 58.0219 161.808 57.7502 162.321 57.3618C162.83 56.9333 163.262 56.4282 163.614 55.8075C163.576 55.6888 163.536 55.5753 163.418 55.4946C163.339 55.4565 163.222 55.4192 163.025 55.4565C162.594 56.0399 162.163 56.3891 161.731 56.5833C161.339 56.7782 160.906 56.8951 160.396 56.8557C159.337 56.8557 158.474 56.6234 157.769 56.1184C157.062 55.6507 156.513 54.9906 156.121 54.1758C155.91 53.6878 155.755 53.1719 155.664 52.6285C155.594 52.2121 155.539 51.6125 155.559 51.186C155.567 51.0029 155.61 50.8731 155.689 50.7946Z" fill="#7E5D53"/>
<path fill-rule="evenodd" clip-rule="evenodd" d="M105.707 39.0984H104.65C104.296 39.0583 103.865 39.0583 103.433 39.0199C103.316 39.0583 103.276 39.177 103.237 39.3318C103.198 39.4868 103.237 39.6035 103.316 39.7201L103.787 39.7593C104.374 39.8741 104.805 39.9908 105.081 40.1085C105.356 40.2633 105.55 40.536 105.63 40.886C105.707 41.2352 105.747 41.7009 105.707 42.2844C105.669 43.1003 105.63 44.0712 105.591 45.198C105.55 46.3255 105.472 47.4916 105.394 48.6969C105.356 49.6284 105.279 50.4453 105.237 51.1435C105.198 51.8829 105.12 52.5437 105.081 53.1253C105.042 53.748 104.964 54.3697 104.923 54.9904C104.846 55.6504 104.767 56.1562 104.65 56.4671C104.531 56.7779 104.336 56.9711 104.1 57.0898C103.825 57.2047 103.512 57.3213 103.119 57.3615L102.491 57.439C102.375 57.5155 102.334 57.6343 102.375 57.8274C102.375 57.9441 102.413 58.0597 102.53 58.1764C103.04 58.1383 103.512 58.0988 104.021 58.0597H107.121C107.709 58.0988 108.219 58.1383 108.689 58.1764C108.808 58.0988 108.886 57.9832 108.886 57.8274C108.886 57.6713 108.847 57.5547 108.728 57.439L107.631 57.3615C107.277 57.3213 107.002 57.2438 106.807 57.0898C106.611 56.933 106.492 56.6613 106.454 56.3113C106.336 55.9239 106.296 55.3798 106.336 54.6795C106.336 53.4753 106.376 52.272 106.415 51.066C106.454 49.8617 106.492 48.8115 106.532 47.9181C106.569 47.1022 106.651 46.2472 106.688 45.3929C106.728 44.5379 106.766 43.6829 106.807 42.8276H106.884C107.199 43.4877 107.513 44.1485 107.788 44.8871C108.103 45.5871 108.416 46.2863 108.728 46.9474L111.357 52.5025C111.594 52.9702 111.868 53.5538 112.182 54.253C112.534 54.9904 112.887 55.6885 113.202 56.3888C113.516 57.0898 113.749 57.7107 113.908 58.2539C113.947 58.293 113.986 58.293 114.025 58.3332L114.142 58.3716C114.221 58.3716 114.3 58.3716 114.339 58.3332C114.379 58.293 114.418 58.293 114.458 58.2539C114.653 57.788 114.888 57.2047 115.242 56.5065C115.556 55.8073 115.908 55.0295 116.301 54.2136C116.732 53.3977 117.164 52.5437 117.635 51.6887L119.25 48.5138C120.135 46.7744 121.056 44.4223 122.067 42.9051H122.106L122.186 54.9139C122.224 55.5356 122.186 55.9994 122.147 56.3494C122.059 57.121 121.466 57.3072 120.774 57.3615L119.909 57.439C119.831 57.5155 119.793 57.6343 119.831 57.8274C119.831 57.9441 119.871 58.0597 119.989 58.1764C120.577 58.1383 121.203 58.0988 121.793 58.0597H125.168C125.755 58.0988 126.344 58.1383 126.933 58.1764C127.051 58.0988 127.09 57.9832 127.09 57.8274C127.129 57.6713 127.09 57.5547 127.011 57.439L126.071 57.3615C125.411 57.3002 124.826 56.9793 124.737 56.2721C124.696 55.9239 124.657 55.4944 124.657 55.0295C124.578 53.6303 124.541 52.1533 124.501 50.6393C124.461 49.084 124.382 47.6073 124.343 46.2098V42.5167C124.343 41.8569 124.382 41.3509 124.461 40.9625C124.541 40.6135 124.737 40.3027 125.01 40.1085C125.285 39.9535 125.755 39.8358 126.382 39.7593L126.97 39.7201C127.051 39.6416 127.09 39.5249 127.051 39.3318C127.051 39.2141 127.011 39.0984 126.933 39.0199C126.462 39.0583 125.991 39.0583 125.561 39.0984H124.343C123.618 39.0984 122.911 39.0742 122.186 39.0199C122.147 39.68 121.911 40.4194 121.558 41.2733C121.127 42.1667 120.616 43.2564 119.989 44.5379L117.242 50.0168C116.89 50.7562 116.536 51.4935 116.184 52.2319C115.831 52.9702 115.438 53.6694 115.007 54.3697H114.928C114.574 53.7078 114.26 53.0869 113.947 52.4261C113.594 51.7268 113.28 51.0276 112.966 50.3668L109.632 43.7604C109.201 42.8276 108.808 41.9344 108.495 41.1186C108.219 40.3027 108.103 39.6035 108.141 39.0199C107.329 39.0853 106.522 39.0984 105.707 39.0984Z" fill="#7E5D53"/>
<path fill-rule="evenodd" clip-rule="evenodd" d="M21.5569 39.5648C21.5182 39.7206 21.5975 39.8362 21.7142 39.9539L22.735 40.0688C23.1656 40.109 23.4805 40.2256 23.6765 40.4198C23.8716 40.5746 23.9904 40.8473 24.0278 41.2738C24.0686 41.7013 24.1071 42.3251 24.1071 43.1389V48.8895C24.8924 48.9296 25.6763 48.9296 26.4626 48.8895V40.963C26.4228 40.6521 26.4626 40.4198 26.5398 40.2256C26.5783 40.109 26.7359 39.9913 26.9317 39.9539C27.1665 39.9148 27.5604 39.9148 28.0692 39.9148C29.5594 39.9539 30.698 40.3413 31.5217 41.1571C32.3056 41.973 32.6978 43.1008 32.6978 44.5002C32.7383 45.7436 32.4245 46.7918 31.7573 47.6468C31.1681 48.3862 30.3059 48.9296 29.1288 49.2014C27.9912 49.4728 26.3833 49.5895 24.2249 49.5503C22.3419 49.513 20.3023 49.3953 18.0659 49.163C20.5382 49.668 22.3806 50.0172 23.5588 50.1329C25.4803 50.3672 27.3636 50.3281 29.1288 50.0564C30.0305 49.9397 30.8553 49.7061 31.6007 49.4347C32.3056 49.1238 33.0126 48.6973 33.7591 48.1913C34.1889 47.8804 34.5818 47.3744 34.9354 46.7143C35.2105 46.0926 35.3671 45.3553 35.4055 44.4598C35.3671 43.4881 35.1315 42.6359 34.7006 41.8955C34.268 41.1571 33.7591 40.5746 33.0919 40.1481C32.4245 39.7597 31.6007 39.4471 30.6592 39.2539C29.7565 39.0989 28.6969 39.0203 27.4813 39.0203C26.303 39.0203 25.2457 39.0203 24.3032 39.0587C23.3627 39.0989 22.4995 39.1362 21.7527 39.2145C21.6359 39.2931 21.5569 39.4087 21.5569 39.5648Z" fill="#7E5D53"/>
<path fill-rule="evenodd" clip-rule="evenodd" d="M26.4626 53.7873V51.0661C25.5973 51.1053 24.8141 51.0661 24.1071 50.9495V53.7873C24.1071 54.7572 24.0686 55.4945 23.9904 55.9995C23.9498 56.5066 23.7943 56.8175 23.5171 56.9712C23.3221 57.1675 22.93 57.3215 22.3419 57.3617L21.7527 57.4392C21.6359 57.5548 21.5974 57.6715 21.6359 57.8275C21.6359 57.9834 21.6747 58.099 21.7935 58.1765C22.4201 58.1384 23.0083 58.099 23.5587 58.0598H27.0099C27.5981 58.099 28.305 58.1384 29.1288 58.1765C29.206 58.099 29.2466 57.9834 29.285 57.8275C29.285 57.6344 29.2466 57.5157 29.1683 57.4392L28.3831 57.3617C27.7554 57.3215 27.3248 57.2048 27.0903 57.0106C26.8139 56.8175 26.6178 56.5066 26.5398 55.9995C26.4626 55.4945 26.4228 54.7572 26.4626 53.7873Z" fill="#7E5D53"/>
<path fill-rule="evenodd" clip-rule="evenodd" d="M105.067 62.8033H106.269V67.0254C106.269 68.8233 105.39 69.4229 104.083 69.4229C103.751 69.4229 103.332 69.3646 103.077 69.2688L103.224 68.3113C103.419 68.3695 103.682 68.428 103.966 68.428C104.649 68.428 105.067 68.1182 105.067 66.9863V62.8033Z" fill="#7E5D53"/>
<path fill-rule="evenodd" clip-rule="evenodd" d="M112.572 67.9054C112.572 68.4648 112.59 68.9286 112.611 69.316H111.558L111.501 68.6008H111.478C111.274 68.9397 110.806 69.4226 109.957 69.4226C109.088 69.4226 108.297 68.9106 108.297 67.3744V64.61H109.499V67.1702C109.499 67.9528 109.753 68.4558 110.385 68.4558C110.865 68.4558 111.176 68.1179 111.305 67.8181C111.342 67.7123 111.371 67.5866 111.371 67.4509V64.61H112.572V67.9054Z" fill="#7E5D53"/>
<path fill-rule="evenodd" clip-rule="evenodd" d="M114.593 68.2248C114.865 68.3896 115.381 68.5627 115.812 68.5627C116.339 68.5627 116.573 68.3505 116.573 68.0396C116.573 67.7218 116.378 67.5578 115.792 67.3546C114.865 67.0357 114.474 66.5325 114.485 65.9824C114.485 65.1513 115.177 64.5044 116.279 64.5044C116.806 64.5044 117.265 64.6373 117.539 64.783L117.305 65.6231C117.099 65.5085 116.719 65.3535 116.3 65.3535C115.871 65.3535 115.636 65.5567 115.636 65.8474C115.636 66.1462 115.861 66.2912 116.465 66.5034C117.324 66.8142 117.724 67.2479 117.735 67.9441C117.735 68.7942 117.06 69.4229 115.802 69.4229C115.225 69.4229 114.709 69.2781 114.358 69.085L114.593 68.2248Z" fill="#7E5D53"/>
<path fill-rule="evenodd" clip-rule="evenodd" d="M120.875 63.4016V64.61H122.019V65.4982H120.875V67.5766C120.875 68.146 121.032 68.4478 121.492 68.4478C121.715 68.4478 121.823 68.4277 121.96 68.3894L121.98 69.2969C121.804 69.3644 121.492 69.4226 121.111 69.4226C120.67 69.4226 120.3 69.2686 120.076 69.0263C119.823 68.7556 119.706 68.3301 119.706 67.7123V65.4982H119.022V64.61H119.706V63.7398L120.875 63.4016Z" fill="#7E5D53"/>
<path fill-rule="evenodd" clip-rule="evenodd" d="M127.706 67.3442C127.706 67.4609 127.717 67.5675 127.746 67.6731C127.863 68.156 128.292 68.5042 128.799 68.5042C129.56 68.5042 130.01 67.8763 130.01 66.9479C130.01 66.1168 129.6 65.4408 128.829 65.4408C128.331 65.4408 127.872 65.798 127.755 66.32C127.726 66.4166 127.706 66.5222 127.706 66.6198V67.3442ZM126.506 66.1742C126.506 65.5564 126.486 65.0534 126.467 64.6099H127.521L127.581 65.3341H127.599C127.95 64.8021 128.506 64.5041 129.228 64.5041C130.322 64.5041 131.23 65.4307 131.23 66.8994C131.23 68.6007 130.147 69.4226 129.063 69.4226C128.467 69.4226 127.97 69.1712 127.726 68.7939H127.706V71.2305H126.506V66.1742Z" fill="#7E5D53"/>
<path fill-rule="evenodd" clip-rule="evenodd" d="M135.933 66.4643C135.942 66.0295 135.748 65.3143 134.946 65.3143C134.206 65.3143 133.892 65.9824 133.846 66.4643H135.933ZM133.846 67.2961C133.873 68.1462 134.547 68.5145 135.308 68.5145C135.866 68.5145 136.265 68.437 136.625 68.3013L136.801 69.1241C136.392 69.2882 135.825 69.4229 135.142 69.4229C133.6 69.4229 132.693 68.4751 132.693 67.0357C132.693 65.7298 133.492 64.5044 135.016 64.5044C136.567 64.5044 137.064 65.7599 137.064 66.7942C137.064 67.0154 137.045 67.1905 137.026 67.2961H133.846Z" fill="#7E5D53"/>
<path fill-rule="evenodd" clip-rule="evenodd" d="M138.812 66.1258C138.812 65.4892 138.801 65.0343 138.773 64.6099H139.816L139.856 65.5082H139.895C140.13 64.8402 140.684 64.5041 141.192 64.5041C141.31 64.5041 141.377 64.5133 141.475 64.5324V65.653C141.377 65.6339 141.27 65.6148 141.124 65.6148C140.549 65.6148 140.157 65.9821 140.05 66.5131C140.031 66.6197 140.012 66.7457 140.012 66.8804V69.3159H138.812V66.1258Z" fill="#7E5D53"/>
<path fill-rule="evenodd" clip-rule="evenodd" d="M143.476 69.3162V65.4984H142.832V64.6102H143.476V64.4059C143.476 63.7981 143.643 63.1885 144.051 62.8033C144.402 62.4734 144.881 62.3474 145.291 62.3474C145.613 62.3474 145.866 62.3958 146.061 62.4651L145.975 63.3817C145.846 63.3335 145.681 63.2941 145.467 63.2941C144.87 63.2941 144.665 63.7881 144.665 64.3686V64.6102H145.71V65.4984H144.675V69.3162H143.476Z" fill="#7E5D53"/>
<path fill-rule="evenodd" clip-rule="evenodd" d="M150.062 66.4643C150.072 66.0295 149.876 65.3143 149.077 65.3143C148.335 65.3143 148.022 65.9824 147.974 66.4643H150.062ZM147.974 67.2961C148.003 68.1462 148.677 68.5145 149.438 68.5145C149.994 68.5145 150.394 68.437 150.755 68.3013L150.93 69.1241C150.521 69.2882 149.954 69.4229 149.272 69.4229C147.731 69.4229 146.823 68.4751 146.823 67.0357C146.823 65.7298 147.623 64.5044 149.146 64.5044C150.697 64.5044 151.193 65.7599 151.193 66.7942C151.193 67.0154 151.174 67.1905 151.154 67.2961H147.974Z" fill="#7E5D53"/>
<path fill-rule="evenodd" clip-rule="evenodd" d="M156.434 69.1715C156.18 69.2882 155.684 69.4229 155.087 69.4229C153.602 69.4229 152.639 68.4751 152.639 67.0154C152.639 65.6051 153.614 64.5044 155.283 64.5044C155.723 64.5044 156.17 64.6002 156.443 64.7248L156.229 65.6151C156.034 65.5276 155.752 65.431 155.322 65.431C154.403 65.431 153.859 66.098 153.868 66.9592C153.868 67.925 154.502 68.4751 155.322 68.4751C155.742 68.4751 156.034 68.3896 156.268 68.292L156.434 69.1715Z" fill="#7E5D53"/>
<path fill-rule="evenodd" clip-rule="evenodd" d="M159.625 63.4016V64.61H160.766V65.4982H159.625V67.5766C159.625 68.146 159.781 68.4478 160.24 68.4478C160.465 68.4478 160.571 68.4277 160.709 68.3894L160.729 69.2969C160.552 69.3644 160.24 69.4226 159.86 69.4226C159.42 69.4226 159.049 69.2686 158.825 69.0263C158.572 68.7556 158.454 68.3301 158.454 67.7123V65.4982H157.772V64.61H158.454V63.7398L159.625 63.4016Z" fill="#7E5D53"/>
<path fill-rule="evenodd" clip-rule="evenodd" d="M186.036 35.9912C189.296 35.9912 191.94 38.612 191.94 41.8464C191.94 45.0704 189.296 47.6912 186.036 47.6912C182.774 47.6912 180.133 45.0704 180.133 41.8464C180.133 38.612 182.774 35.9912 186.036 35.9912ZM182.053 43.3648C182.053 43.5936 182.044 43.7704 182.025 43.8952C182.006 44.124 181.852 44.1969 181.634 44.2177L181.495 44.2385C181.45 44.2801 181.453 44.3736 181.505 44.4048C181.793 44.3944 182.052 44.3841 182.34 44.3841C182.648 44.3841 182.934 44.3944 183.241 44.4048C183.259 44.3944 183.268 44.3632 183.278 44.3216C183.278 44.28 183.268 44.2489 183.25 44.2385L183.064 44.2177C182.916 44.2073 182.813 44.1761 182.759 44.1345C182.754 44.1345 182.751 44.1241 182.748 44.1241C182.692 44.0825 182.651 44.0096 182.635 43.8952C182.616 43.7808 182.607 43.604 182.616 43.3752V42.7304C182.412 42.7408 182.227 42.7305 182.059 42.7097L182.053 43.3648ZM185.785 39.9433H185.284C185.202 39.9329 185.102 39.9328 185.002 39.9224C184.975 39.9328 184.966 39.964 184.956 39.9952C184.947 40.0368 184.956 40.0681 184.975 40.0889L185.084 40.0993C185.221 40.1305 185.321 40.1512 185.384 40.1824C185.447 40.2136 185.493 40.2761 185.511 40.3593C185.53 40.4425 185.539 40.5464 185.53 40.6816C185.52 40.8688 185.511 41.0977 185.502 41.3577C185.493 41.6177 185.475 41.8881 185.456 42.1689C185.439 42.6057 185.399 43.6561 185.281 43.9681C185.253 44.0409 185.208 44.0825 185.154 44.1137C185.09 44.1345 185.016 44.1656 184.926 44.176L184.78 44.1968C184.753 44.2072 184.743 44.2384 184.753 44.28C184.753 44.3112 184.761 44.3321 184.789 44.3633C184.908 44.3529 185.016 44.3424 185.135 44.332H185.854C185.991 44.3424 186.109 44.3529 186.219 44.3633C186.247 44.3425 186.265 44.3216 186.265 44.28C186.265 44.2488 186.256 44.2176 186.228 44.1968L185.974 44.176C185.891 44.1656 185.827 44.1449 185.782 44.1137C185.758 44.0929 185.741 44.072 185.727 44.0408C185.673 43.9056 185.672 43.6977 185.674 43.5625C185.681 43.2817 185.684 43.0008 185.692 42.72C185.702 42.4392 185.711 42.2 185.721 41.992C185.729 41.8048 185.748 41.6073 185.757 41.4097C185.766 41.2121 185.775 41.004 185.785 40.8064H185.803C185.875 40.9624 185.947 41.1184 186.011 41.2848C186.084 41.4512 186.157 41.6073 186.229 41.7633L187.029 43.4585C187.112 43.6249 187.193 43.7913 187.266 43.9577C187.305 44.0409 187.339 44.124 187.367 44.1968C187.373 44.1968 187.425 44.3633 187.431 44.3841C187.466 44.4153 187.523 44.4153 187.557 44.3841C187.615 44.2489 187.674 44.1137 187.74 43.9785C187.911 43.5937 188.09 43.2296 188.294 42.8656L188.885 41.7008C188.93 41.6072 188.977 41.4929 189.04 41.3785C189.104 41.2537 189.167 41.1392 189.221 41.0352C189.267 40.9312 189.303 40.8584 189.322 40.8272H189.332L189.349 43.6145C189.358 43.7601 189.349 43.864 189.34 43.9472C189.333 44.0096 189.315 44.0721 189.252 44.1033C189.215 44.1449 189.143 44.1656 189.024 44.176L188.823 44.1968C188.805 44.2072 188.797 44.2384 188.806 44.28C188.806 44.3112 188.815 44.3321 188.842 44.3633C188.979 44.3529 189.124 44.3424 189.261 44.332H190.044C190.18 44.3424 190.318 44.3529 190.454 44.3633C190.481 44.3425 190.49 44.3216 190.49 44.28C190.499 44.2488 190.49 44.2176 190.473 44.1968L190.253 44.176C190.154 44.1656 190.08 44.1345 190.035 44.0929C189.989 44.0513 189.953 43.9888 189.945 43.9264C189.934 43.8432 189.925 43.7392 189.925 43.6352C189.907 43.3024 189.894 42.9592 189.886 42.6264C189.876 42.2624 189.859 41.9192 189.849 41.5968V40.7337C189.849 40.5881 189.859 40.4632 189.876 40.38C189.894 40.2968 189.941 40.224 190.004 40.1824C190.068 40.1408 190.176 40.1201 190.323 40.0993L190.458 40.0889C190.477 40.0681 190.485 40.0472 190.477 39.9952C190.477 39.9744 190.468 39.9432 190.449 39.9224C190.341 39.9328 190.231 39.9329 190.132 39.9433H189.639C189.557 39.9329 189.467 39.9328 189.349 39.9224C189.34 40.0784 189.285 40.2553 189.202 40.4529C189.104 40.6609 188.986 40.9104 188.839 41.212L188.203 42.4808C188.038 42.824 187.888 43.1465 187.686 43.4793H187.667C187.506 43.1777 187.358 42.8657 187.212 42.5537L186.44 41.0248C186.339 40.8064 186.248 40.5984 186.175 40.4112C186.111 40.224 186.084 40.068 186.093 39.9224C185.984 39.9328 185.883 39.9329 185.785 39.9433ZM181.458 40.016C181.448 40.0472 181.467 40.0785 181.495 40.1097L181.736 40.1304C181.838 40.1408 181.911 40.1721 181.958 40.2137C182.005 40.2553 182.032 40.3176 182.041 40.4216C182.051 40.5152 182.059 40.6713 182.059 40.8585V42.2208C182.246 42.2312 182.431 42.2312 182.616 42.2208V40.3489C182.607 40.2761 182.616 40.2136 182.635 40.172C182.644 40.1408 182.681 40.1201 182.728 40.1097C182.783 40.0993 182.876 40.0993 182.996 40.0993C183.349 40.1097 183.617 40.1928 183.813 40.3904C183.998 40.588 184.09 40.848 184.09 41.1808C184.1 41.472 184.026 41.7217 183.867 41.9297C183.729 42.0961 183.525 42.2313 183.247 42.2937C182.978 42.3561 182.598 42.3872 182.088 42.3768C181.643 42.3664 181.16 42.3353 180.632 42.2833C181.217 42.4081 181.652 42.4808 181.931 42.512C182.385 42.564 182.83 42.5536 183.247 42.4912C183.46 42.4704 183.654 42.408 183.831 42.3456C183.998 42.2728 184.166 42.1689 184.341 42.0545C184.443 41.9817 184.536 41.8568 184.619 41.7008C184.684 41.5552 184.721 41.3888 184.729 41.1704C184.721 40.9416 184.665 40.744 184.563 40.5672C184.462 40.3904 184.341 40.2552 184.183 40.1512C184.026 40.0576 183.831 39.9849 183.609 39.9433C183.396 39.9017 183.145 39.8912 182.857 39.8912C182.579 39.8912 182.329 39.8912 182.107 39.8912C181.884 39.9016 181.68 39.9121 181.504 39.9329C181.475 39.9537 181.458 39.9744 181.458 40.016Z" fill="#7E5D53"/>
</g>
<defs>
<clipPath id="clip0_3152_293">
<rect width="210" height="104" fill="white"/>
</clipPath>
</defs>
</svg>
