<svg width="210" height="104" viewBox="0 0 210 104" fill="none" xmlns="http://www.w3.org/2000/svg">
<g clip-path="url(#clip0_3152_286)">
<path fill-rule="evenodd" clip-rule="evenodd" d="M127.763 42.8381C130.127 42.8381 132.043 40.9414 132.043 38.6025C132.043 36.2623 130.127 34.3638 127.763 34.3638C125.402 34.3638 123.487 36.2623 123.487 38.6025C123.487 40.9414 125.402 42.8381 127.763 42.8381ZM94.9875 45.1255C94.7944 45.606 93.4046 49.4945 90.0432 53.5247V36.2923L81.0869 38.0456V69.2812H90.0432V59.626C92.6372 63.4795 93.9181 69.2812 93.9181 69.2812H104.646C103.585 64.9117 98.9429 56.855 98.9429 56.855C103.109 51.6235 104.939 46.0491 105.23 45.1255H94.9875ZM118.533 44.7995C110.511 45.0545 106.439 48.6193 106.439 55.7056V69.2812H115.191V58.2107C115.191 53.9674 115.752 52.1485 120.835 51.975V44.9238C119.98 44.7439 118.533 44.7995 118.533 44.7995ZM66.0663 48.5651C64.9693 48.4936 62.4295 48.331 62.4295 46.0664C62.4295 43.3336 66.0861 43.3336 67.4576 43.3336C69.869 43.3336 72.9923 44.0394 75.2226 44.7002C75.2226 44.7002 76.4667 45.1346 77.5256 45.5796L77.624 45.606V38.1216L77.4888 38.082C74.8566 37.1699 71.7959 36.2923 66.1215 36.2923C56.3376 36.2923 52.871 41.9378 52.871 46.774C52.871 49.5619 54.0774 56.1232 65.2824 56.88C66.2323 56.9379 68.7532 57.0818 68.7532 59.422C68.7532 61.3542 66.6893 62.4936 63.218 62.4936C59.4139 62.4936 55.7238 61.5328 53.4825 60.6215V68.3299C56.8378 69.2011 60.6204 69.6364 65.0534 69.6364C74.6198 69.6364 78.9044 64.2951 78.9044 59.0012C78.9044 52.9988 74.1099 49.0988 66.0663 48.5651ZM123.425 69.2812H132.106V45.1529H123.425V69.2812ZM148.451 37.8306V69.2812H157.133V36.2923L148.451 37.8306ZM135.783 37.8306L144.457 36.2923V69.2812H135.783V37.8306Z" fill="#7E5D53"/>
</g>
<defs>
<clipPath id="clip0_3152_286">
<rect width="210" height="104" fill="white"/>
</clipPath>
</defs>
</svg>
