<svg width="210" height="104" viewBox="0 0 210 104" fill="none" xmlns="http://www.w3.org/2000/svg">
<g clip-path="url(#clip0_3152_350)">
<path d="M122.119 42.9287H118.98L119.939 38.3121H122.602C123.472 38.3121 124.108 38.4348 124.505 38.6929C124.908 38.9478 125.105 39.3506 125.105 39.9076C125.105 40.0177 125.086 40.1279 125.08 40.2412C125.054 40.3608 125.042 40.4929 125.013 40.6345C124.842 41.415 124.53 41.9909 124.06 42.3654C123.58 42.7399 122.935 42.9287 122.119 42.9287ZM96.9805 49.4586C97.7304 49.4586 98.3372 49.2006 98.8138 48.6876C99.2904 48.1778 99.6271 47.4037 99.8368 46.3778C99.8686 46.2173 99.894 46.0505 99.9099 45.8805C99.9226 45.7169 99.9322 45.5627 99.9322 45.4211C99.9322 44.8263 99.7797 44.3605 99.4683 44.0301C99.1601 43.6997 98.7248 43.5329 98.1593 43.5329C97.4126 43.5329 96.8058 43.7941 96.3292 44.3133C95.8494 44.8357 95.5095 45.6193 95.2934 46.6673C95.2648 46.8278 95.2394 46.9914 95.2204 47.1456C95.2045 47.3061 95.1981 47.4572 95.2013 47.5956C95.2013 48.1904 95.357 48.6499 95.6683 48.974C95.9734 49.2981 96.4086 49.4586 96.9805 49.4586ZM130.878 49.5782C131.746 49.852 132.864 48.8922 133.356 47.4351C133.862 45.9781 133.553 44.5745 132.68 44.307C131.819 44.0364 130.697 44.9899 130.208 46.4501C129.693 47.9103 130.008 49.3139 130.878 49.5782ZM106.989 62.6255H111.373C111.732 62.6759 111.936 62.5342 111.961 62.2007L112.26 61.1433H107.399L106.989 62.6255ZM120.486 68.8722H122.935L123.561 66.6756H121.111L120.486 68.8722ZM121.483 65.4609C121.483 65.4609 123.072 64.6868 124.152 64.6207C124.473 63.4563 124.784 62.4367 124.784 62.4367H122.325L121.483 65.4609ZM122.713 61.0772C122.713 61.0772 124.139 60.5328 125.375 60.3786C125.649 59.3684 126.001 58.1851 126.001 58.1851H123.548L122.713 61.0772ZM107.707 59.9726C107.707 59.9726 108.514 59.3967 109.861 59.3747C111.211 59.3558 112.749 59.3747 112.749 59.3747L113.14 57.9617H108.288L107.707 59.9726ZM162.174 23.9871L149.379 80.0597C148.55 83.6598 145.023 86.577 141.385 86.7564H112.965C109.276 86.6998 106.982 83.7133 107.824 80.0345L108.819 75.6728H106.588L105.594 80.0345C104.752 83.7101 107.043 86.6998 110.735 86.7564H80.5194C76.8338 86.6998 74.5367 83.7133 75.3818 80.0345L78.3525 67.0187H75.7472L72.7765 80.0345C71.9314 83.7101 74.2285 86.6998 77.9172 86.7564H52.938C49.9704 86.7155 47.9052 84.7612 47.6511 82.0863V81.0478C47.6765 80.7205 47.721 80.3838 47.8004 80.0439L60.5982 23.9682C61.4561 20.2517 66.26 17.2463 70.0091 17.2463L94.8359 17.2526C91.109 17.3282 86.4163 20.302 85.5743 23.9682L83.1723 34.5011H85.7745L88.1796 23.9682C89.0216 20.2989 93.7112 17.3282 97.438 17.2526C97.4889 17.2495 97.5365 17.2463 97.5842 17.2463L116.819 17.2558H127.634C127.612 17.2558 127.59 17.2589 127.571 17.2589C123.853 17.3722 119.224 20.3241 118.379 23.9651L115.974 34.498H118.204L120.609 23.9651C121.451 20.3241 126.081 17.3722 129.798 17.2589C129.817 17.2589 129.836 17.2558 129.865 17.2558H129.871L156.925 17.2621C160.671 17.2589 163.029 20.2737 162.174 23.9871ZM74.149 45.9214L76.4271 35.0393H73.0053L70.7494 45.7956C70.5524 46.7459 70.1108 47.4729 69.4341 47.9858C68.7573 48.5051 67.8868 48.76 66.8287 48.76C65.9042 48.76 65.2433 48.4988 64.8366 47.9733C64.557 47.6208 64.4204 47.1708 64.4236 46.6201C64.4204 46.3715 64.4458 46.0945 64.5157 45.7924L66.7652 35.0361H63.3243L61.0462 45.9183C60.935 46.447 60.881 46.9411 60.881 47.4005C60.881 48.5082 61.2082 49.4272 61.8596 50.1478C62.8 51.1643 64.2743 51.6709 66.2886 51.6709C68.4269 51.6709 70.1744 51.1737 71.5247 50.1856C72.8877 49.1817 73.7678 47.7687 74.149 45.9214ZM84.9166 42.2773C84.4528 41.6856 83.7156 41.3898 82.6926 41.3898C81.5647 41.3898 80.6083 41.8052 79.8172 42.6392L79.4709 43.0388L79.7473 41.6384H77.3167L75.3564 51.3531H77.8569L78.9721 45.7735C79.115 45.0718 79.4073 44.521 79.849 44.1245C80.2906 43.7312 80.8307 43.5329 81.4725 43.5329C81.9968 43.5329 82.359 43.6808 82.5464 43.9798C82.7402 44.2756 82.7752 44.7382 82.6513 45.3581L81.4408 51.3562H83.9412L85.2757 44.7382C85.4949 43.6871 85.371 42.872 84.9166 42.2773ZM132.219 50.7489L132.677 51.2744L135.784 51.3531L137.817 42.1954L135.12 42.4315L133.982 43.2088C132.791 42.2867 131.701 41.714 129.604 42.6801C126.742 43.9924 124.349 54.0721 132.219 50.7489ZM134.624 57.3355C134.259 57.3355 134.081 57.2001 134.103 56.9106L133.973 55.784H130.878L130.983 58.2575C131.028 58.9687 131.469 59.2897 132.337 59.2425H134.608L135.167 57.3355H134.624ZM113.944 51.3531H117.219L118.389 45.6634H122.176C123.698 45.6634 125.023 45.2039 126.147 44.2945C127.263 43.3787 127.984 42.1766 128.295 40.6786C128.359 40.4048 128.397 40.1405 128.432 39.8824C128.454 39.6212 128.47 39.3758 128.47 39.1618V39.1272C128.47 37.9942 128.111 37.1257 127.39 36.5215C126.662 35.9235 125.617 35.6151 124.263 35.6151H117.2L113.944 51.3531ZM103.227 51.3531H105.724L106.843 45.7735C106.982 45.0718 107.275 44.521 107.716 44.1245C108.161 43.7312 108.701 43.5329 109.343 43.5329C109.864 43.5329 110.217 43.6808 110.417 43.9798C110.611 44.2756 110.639 44.7382 110.515 45.3581L109.305 51.3562H111.805L113.14 44.7382C113.359 43.6902 113.229 42.872 112.781 42.2804C112.317 41.6888 111.577 41.393 110.56 41.393C109.435 41.393 108.473 41.8084 107.685 42.6423L107.345 43.042L107.621 41.6416H105.187L103.227 51.3531ZM100.495 57.0585L101.178 55.8658H97.9083L96.6882 57.6785C96.5516 57.9617 96.2625 58.1033 95.8272 58.1033H95.357L94.8264 60.0104H97.2569C98.0544 60.0576 98.7153 59.6831 99.2522 58.8838H103.916L104.415 57.0585H100.495ZM91.2933 41.6416H88.599L86.4925 51.3499H89.1805L91.2933 41.6416ZM92.1639 38.1012H89.4442L88.939 40.4615H91.6555L92.1639 38.1012ZM92.6119 47.9072C92.615 49.0495 92.9709 49.9464 93.6794 50.6167C94.3816 51.2744 95.3379 51.6049 96.5516 51.6049C98.0195 51.6049 99.2777 51.1517 100.326 50.2359C101.378 49.3296 102.055 48.0897 102.366 46.5382C102.41 46.3022 102.445 46.0631 102.48 45.8113C102.506 45.5658 102.522 45.3361 102.522 45.1379C102.522 43.9829 102.169 43.0703 101.467 42.3968C100.765 41.7265 99.8051 41.3898 98.5914 41.3898C97.114 41.3898 95.8494 41.8556 94.8041 42.7839C93.7557 43.706 93.0789 44.9585 92.7548 46.5382C92.7104 46.7617 92.6754 46.9977 92.6468 47.2463C92.6246 47.4855 92.6119 47.7058 92.6119 47.9072ZM101.051 70.0586H98.3118C97.6128 70.1058 97.3586 69.8918 97.5493 69.4229L98.3308 66.6001H101.696L102.242 64.6175H98.8805L99.4079 62.7042H102.862L103.408 60.7247H94.8168L94.2767 62.7042H96.3292L95.805 64.6112H93.654L93.1107 66.6001H95.2585L94.2608 70.2065C93.9495 71.3394 94.2894 71.9059 95.2903 71.9059H100.549L101.051 70.0586ZM114.706 65.1053H112.38L112.158 65.8826C112.158 66.1155 111.971 66.2382 111.593 66.2382H110.846L110.903 65.0392H108.098L107.888 70.5527C107.875 71.4936 108.342 71.9342 109.28 71.8996H112.641L113.102 70.2695H111.704C111.084 70.2695 110.782 70.0995 110.811 69.7785L110.817 67.7267H112.311C113.442 67.6764 114.141 67.1855 114.404 66.2382L114.706 65.1053ZM114.843 63.2643L116.921 55.8092H111.481C110.013 55.8092 108.39 57.0145 108.39 57.0145L108.52 55.8532H105.645L101.565 70.7635C101.371 71.4779 101.861 71.8241 103.046 71.8241H106.128L106.576 70.1971H105.362C105.047 70.1971 104.933 70.0492 105.016 69.7723L106.458 64.5357H112.619C113.931 64.5389 114.671 64.1203 114.843 63.2643ZM126.43 70.9901L127.031 68.8691H126.392L129.461 58.182H130.097L130.742 55.9193H126.681C125.467 55.9193 123.793 56.7533 123.793 56.7533L123.936 55.9193H120.651L120.003 58.182H120.635L117.566 68.8691H116.937L116.33 70.9901H122.611L122.344 71.909H125.525L125.792 70.9901H126.43ZM139.987 59.8845H129.979L129.385 61.9363H132.845L132.292 63.8402H128.838L128.241 65.8858H131.431L128.962 69.4229C128.686 69.7502 128.365 69.917 127.993 69.917H127.091L126.516 71.8996H129.433C130.202 71.9499 130.783 71.6415 131.151 70.9807L132.727 68.6425L133.191 70.8328C133.236 71.5471 133.744 71.8713 134.729 71.8209H136.639L137.207 69.8383H136.667C136.302 69.8383 136.089 69.7251 136.041 69.4859L135.638 67.0753H133.912L134.713 65.8763H138.256L138.853 63.8308H135.669L136.219 61.9237H139.403L139.987 59.8845ZM148.922 41.6416H146.049L143.209 48.1998L143.047 41.6416H141.538L139.743 41.6667L140.601 52.1209C139.879 53.5434 138.618 56.747 136.289 57.4551L136.048 59.1198C138.821 59.2205 139.968 57.861 140.553 57.2725C141.134 56.6809 142.122 55.4095 143.152 53.2255L148.922 41.6416Z" fill="#7E5D53"/>
</g>
<defs>
<clipPath id="clip0_3152_350">
<rect width="210" height="104" fill="white"/>
</clipPath>
</defs>
</svg>
